<svg id="Layer_1" width="64" height="64" data-name="Layer 1" xmlns="http://www.w3.org/2000/svg" viewBox="0 0 800 800"><defs><style>.cls-1{fill:none;}.cls-2{fill:#fff;}.cls-3{fill:#c1daf2;}.cls-4{fill:#6a7695;}</style></defs><title>Portal Point of Sale</title><rect class="cls-1" width="800" height="800"/><path class="cls-2" d="M554.39,465.47c0-44.49.15-89-.15-133.47,0-7.08,2.13-9.06,9-8.92,18.3.35,18.27.06,18.27,18.34q-.06,128.94.06,257.89c0,6.92-1.29,9.6-8.91,9.36-18.29-.58-18.31-.18-18.31-18.79ZM234,230.81a104,104,0,0,0-.37,13.56q0,224.39,0,448.77c0,3,0,6,.07,9.05.6,14.67,11.41,28.51,25.64,31.8a108.76,108.76,0,0,0,24.58,3.23q101.06-.15,202.12-.08c2.73,0,5.53.51,8.21-.53C515.06,735,529,718.67,529,695.86c0-152.56-.3-305.11.34-457.66.1-24.95-18.23-44.82-43.91-43.38-6.15.35-8.25,1.79-8.13,8.12.28,15.33-4.2,19-19,17-3.06-1.14-6.11-2.22-9.48-2.15-48.7,1-97.36-2.45-146.07-1.54-3.81.07-7.53.3-10.85,2.43-10.39,4.12-15.24,2.37-21-7.56C254.45,203.44,236.38,213.1,234,230.81ZM436.19,353.67c-18.87.22-37.69-1.23-56.49-2.15-25.09-1.24-50.22-1.65-75.28-3.54-5.39-.41-7.46,2.07-7.32,7.66.34,13.32.39,26.67,0,40-.17,5.63,2,6.54,7,6.52,46.79-.15,93.57-.08,140.36-.11,2.68,0,5.65.75,7.57-2.11l-.09-42.41C447.36,353.45,441.7,353.6,436.19,353.67Z"/><path class="cls-3" d="M458.3,219.91c-26.38.06-52.81,1.27-79.11-.12-29.12-1.53-58.21-.34-87.29-1.14,3.91-4.08,4.85-9,4.83-14.53-.13-40.22-.07-80.45-.06-120.67,0-9.45,0-9.43,8.14-5.39,7.42,3.7,15,7.07,22.26,11.09,6.81,3.78,12.7,3.13,18.86-1.44s13.48-8,19.28-13.12c7.15-6.28,13-3.76,19.3.63,6.6,4.57,13.43,8.82,20,13.5,5.64,4,11.06,3.7,16.9.52,5.06-2.75,10.33-5.11,15.52-7.65,2,.59,3.53-.66,5.24-1.26,3.11-.85,5.86-3.32,9.42-2,.09,41.64.29,83.27.14,124.9C451.66,210,453.05,215.55,458.3,219.91ZM270.9,201.28c.43-5.05-1.89-6.59-6.65-6.5-7.08.13-14.07.37-20.65,3.37-17.42,8-24.22,22.06-24.21,40.63q.13,218.8.05,437.61c0,7-.12,14.09.1,21.12.67,20.68,14.67,37.38,32.91,39,9.24.8,18.55,1.19,27.83,1.21q103,.14,206,0c2.68,0,5.56.82,8-1.08-3-.11-6-.32-9-.32q-98,0-196.07.05a99.27,99.27,0,0,1-20.2-1.59c-17.72-3.63-33.38-15.14-33.25-38.61.72-132.74.34-265.48.33-398.22,0-21.37-.09-42.74.05-64.11.09-13.67,9.21-22.62,22.69-22.68l12.07,0C270.85,207.82,270.63,204.53,270.9,201.28Zm164,121.89c-25.49.05-51,.69-76.45.58-18.18-.08-36.45.51-54.65-.65-4.71-.3-7.54.73-7.5,6.48q.08,11.35.05,22.71c.67.07,1.33.17,2,.28.94-2.22,3.1-2.74,6.57-2.53,25.73,1.59,51.46,3.38,77.22,4.3,23.28.83,46.58,1.36,69.81,3.18.07-5.78.26-11.55.19-17.33C451.89,320.55,454.91,323.12,434.88,323.17Z"/><path class="cls-4" d="M606,313.6c0-9.44-5.48-14.67-15.13-14.74-10.06-.07-20.13-.23-30.18.08-5,.15-6.5-1.6-6.43-6.51.23-18.36.13-36.72.06-55.08,0-5,.06-10-.89-15-5.8-30.46-35.32-54.83-66.88-52.15-7.81.67-9.67-1.9-9.58-9.53.42-34.7.24-69.42.16-104.13,0-13-8.35-18.51-19.61-13-12.36,6-24.83,11.86-36.94,18.35-5.64,3-9.78,1.61-14.41-1.63-8-5.6-16.49-10.57-24.31-16.43-5.73-4.29-10.55-3.21-15.8.35-9.54,6.44-19.16,12.76-28.75,19.13-3,1.42-5.44.32-8.3-1.18-13-6.83-26.1-13.6-39.55-19.65-6.94-3.12-11.39-.88-15.62,4.15A30.14,30.14,0,0,0,272,58.36c.07,34.66-.07,69.32.14,104,0,5.66-1.18,8.5-7.49,7.81-15.34-1.67-29.1,3.15-42.07,10.86-2.9,1.49-4.64,4.5-7.68,5.81-15,15.75-20.86,34.34-20.8,56.16.42,146.14.22,292.28.22,438.41,0,5.79-.11,11.57.05,17.36,1,35.93,29.11,63.44,65,63.45,76.46,0,152.92-.46,229.37.22,35.42.31,66.47-28.8,65.71-65.69-.4-18.86,0-37.73-.17-56.59-.06-5.46,1.76-7.7,7.45-7.49,10,.35,20.11.18,30.17.13,9.66,0,14.14-4.49,14.14-14.32Q606,466,606,313.6ZM529,695.86c0,22.81-14,39.13-34.78,40.75h0c-2.46,1.9-5.34,1.08-8,1.08q-103,.07-206,0c-9.28,0-18.59-.41-27.83-1.21-18.24-1.58-32.24-18.28-32.91-39-.22-7-.09-14.08-.1-21.12q0-218.8-.05-437.61c0-18.57,6.79-32.66,24.21-40.63,6.58-3,13.57-3.24,20.65-3.37,4.76-.09,7.08,1.45,6.65,6.5-.27,3.25,0,6.54,0,9.81,5.81,9.93,10.66,11.68,21,7.56,3.91-4.08,4.85-9,4.83-14.53-.13-40.22-.07-80.45-.06-120.67,0-9.45,0-9.43,8.14-5.39,7.42,3.7,15,7.07,22.26,11.09,6.81,3.78,12.7,3.13,18.86-1.44s13.48-8,19.28-13.12c7.15-6.28,13-3.76,19.3.63,6.6,4.57,13.43,8.82,20,13.5,5.64,4,11.06,3.7,16.9.52,5.06-2.75,10.33-5.11,15.52-7.65,2,.59,3.53-.66,5.24-1.26,3.11-.85,5.86-3.32,9.42-2,.09,41.64.29,83.27.14,124.9,0,6.75,1.36,12.32,6.61,16.68,14.84,2.07,19.32-1.64,19-17-.12-6.33,2-7.77,8.13-8.12,25.68-1.44,44,18.43,43.91,43.38C528.74,390.75,529.06,543.3,529,695.86Zm43.66-87.19c-18.29-.58-18.31-.18-18.31-18.79V465.47c0-44.49.15-89-.15-133.47,0-7.08,2.13-9.06,9-8.92,18.3.35,18.27.06,18.27,18.34q-.06,128.94.06,257.89C581.63,606.23,580.32,608.91,572.7,608.67ZM477.45,314c0-11-4.63-15.6-15.61-15.6q-87.43-.06-174.88,0c-11.12,0-16,4.88-16.06,16.12q-.07,48.26.09,96.5c0,11.92,4.56,16.25,16.53,16.26q43.35.06,86.69,0t86.69,0c12.44,0,16.54-4,16.56-16.05Q477.55,362.67,477.45,314ZM452.1,340.19c.07,5.78-.12,11.55-.19,17.33l.09,42.41h0c-.68,3.7-3.62,2.85-6,2.85-47.74,0-95.48,0-143.22.13-5.41,0-6.86-1.88-6.79-7q.45-33.15.26-66.32c0-5.75,2.79-6.78,7.5-6.48,18.2,1.16,36.47.57,54.65.65,25.45.11,51-.53,76.45-.58C454.91,323.12,451.89,320.55,452.1,340.19Zm-77.6-93.13q43.35,0,86.71,0c10.6,0,16.05,4.22,16.22,12.45s-6,13.17-16.59,13.17q-86.7,0-173.41,0c-13,0-20.08-9.44-14.58-19.23,3-5.28,7.76-6.46,13.44-6.44C315.69,247.12,345.1,247.06,374.5,247.06Zm-52,245c0-8,.05-16.09,0-24.13-.07-9.41-4.19-14.49-13.3-14.7-16.82-.4-33.67-.36-50.5,0-8.11.16-13.13,5.53-13.21,13.5q-.27,25.24,0,50.51c.08,8.14,4.94,13.34,13.12,13.48q25.62.45,51.26,0c8.2-.16,12.52-5.28,12.63-13.75C322.58,508.6,322.5,500.31,322.5,492Zm-25.95-5.52a41.6,41.6,0,0,0,0,5.24c0,12.68,0,12.68-12.5,12.65a39.73,39.73,0,0,0-6,.06c-5.48.85-6.83-1.71-6.93-6.76-.35-18-.48-17.69,17.82-18.42C294.88,479,297.36,480.45,296.55,486.5Zm206.91,5.67c0-7.53,0-15.07,0-22.6-.05-11.35-4.41-16.27-15.72-16.49-15.82-.31-31.65-.24-47.46,0-9.06.14-13.94,5.15-14,14.18q-.25,24.86,0,49.73c.1,8.7,4.81,13.53,13.6,13.66q24.86.39,49.73,0c8.92-.14,13.71-5.39,13.84-14.38C503.56,508.25,503.46,500.21,503.46,492.17Zm-34.83,12.26a17.46,17.46,0,0,0-3.76,0c-12.85,0-12.82,0-13-13.26-.18-13.1-1.26-11.48,11.67-11.74,13.56-.28,13.57-.17,13.58,13.38a25.17,25.17,0,0,0,0,3C477.91,502.23,476.18,506.12,468.63,504.43Zm-55.8-12.08c0-8.29.09-16.59,0-24.88-.13-9.11-4.71-14.2-13.79-14.36-16.33-.29-32.66-.25-49,0-9.37.14-14.38,5.37-14.47,14.7q-.24,24.12,0,48.24c.08,9.37,5.12,14.52,14.46,14.64q24.5.3,49,0c9.06-.1,13.65-5,13.8-14.23C412.93,508.43,412.83,500.39,412.83,492.35Zm-38.95,12.78c-14,0-12.42,1.76-12.4-12.43,0-16.6-1.93-13.87,13.75-14.12h1.5c10.62,0,10.62,0,10.61,10.48v3C387.18,506.57,389.24,505.14,373.88,505.13ZM503.46,582.8c0-8.28.1-16.57,0-24.85-.13-8.72-5.23-14.39-13.85-14.54q-24.85-.42-49.7,0c-8.52.15-13.53,5.37-13.62,13.86q-.3,25.22,0,50.45c.09,7.68,4.15,12.59,11.81,13a413.7,413.7,0,0,0,53.4-.15c7.93-.6,11.82-5.58,11.95-13.66S503.46,590.84,503.46,582.8Zm-42.33,13c-7.69.23-10.75-2.09-9.44-9.71a22.34,22.34,0,0,0,0-3.75c.19-14.62-2.07-13.12,13.17-13.22a43.58,43.58,0,0,0,5.24,0c6-.83,7.7,1.79,7.67,7.66C477.71,595.7,477.91,595.3,461.13,595.81ZM322.47,557.58c-.06-8.71-4.53-13.92-13.19-14.12q-25.23-.56-50.48,0c-8.53.2-13.2,5.61-13.35,14.15-.15,8,0,16.07,0,24.11s0,16.07,0,24.11c.09,9.93,4.64,15.13,14.55,15.26q24.43.3,48.89-.51c10.21-.35,13.58-4.39,13.63-14.78Q322.62,581.7,322.47,557.58ZM291.22,595.7c-20.07,1.29-23.1-2-20.38-22.1.42-3.12,1.72-4.47,4.73-4.47,2.5,0,5,0,7.5,0,16,.21,13.58-2.22,13.85,14,0,2.25-.12,4.51,0,6.75C297.21,594,295.34,595.44,291.22,595.7Zm31.25,51.72c-.13-8.45-4.45-13.19-13-13.33-17.07-.28-34.15-.24-51.23,0-7.34.09-12.63,5.05-12.75,12.18-.28,17.58-.31,35.16,0,52.74.13,7.43,5.19,12.06,12.67,12.14,17.33.19,34.66.21,52,0,7.47-.1,12.06-5,12.22-12.42.19-8.54.05-17.08.06-25.62S322.6,656,322.47,647.42ZM283.93,685c-12.9,0-13.13,0-12.85-9.94.44-16.08-2.95-15.31,12-15.33,13.55,0,13.63,0,13.54,10C296.41,686.86,298.84,684.79,283.93,685Zm219.53-12.72c0-7.78.07-15.56,0-23.34-.11-9.79-5-14.86-14.78-14.93q-24.09-.18-48.19,0c-9.2.08-14.13,4.76-14.23,13.77q-.28,24.86,0,49.7c.11,8.9,4.76,13.57,13.47,13.66q24.84.24,49.69,0c9-.08,13.86-5,14-14C503.57,688.84,503.46,680.56,503.46,672.27ZM463.94,685a27.58,27.58,0,0,0-3.75,0c-6.49,1-9.51-1.51-8.43-8.28a23.45,23.45,0,0,0,0-3.75c.07-14.3-1.66-13.27,13.37-13.26,12.07,0,12.13,0,12,12.2C477.09,687,479,684.79,463.94,685ZM412.79,557.64c-.14-8.63-4.76-14-13.19-14.19-16.82-.33-33.65-.37-50.47,0-8.43.21-13.46,5.73-13.55,14.1q-.27,24.85.09,49.72c.13,8.11,4.3,13.21,12.28,13.46q26.32.83,52.69,0c8.49-.3,12.07-5.31,12.17-14.13.08-8,0-16.07,0-24.11C412.81,574.22,412.91,565.93,412.79,557.64ZM374,595.93c-13.69-.13-12.94,3.21-12.81-13.3.11-13.86.14-13.87,13.81-13.85,14.41,0,13.2-1.47,13.21,13.35C388.15,597.89,389.46,596.07,374,595.93ZM412.8,648.1c-.08-9.19-4.76-14-13.88-14.09q-24.46-.25-48.94,0c-9.28.09-14.34,5.2-14.44,14.59q-.23,24.09,0,48.19c.11,9.49,5.06,14.24,14.53,14.38,8,.12,16.06,0,24.09,0s16.06.09,24.09,0c9.87-.13,14.44-4.48,14.52-14.13Q413,672.58,412.8,648.1Zm-38.89,37.38c-14.13-.21-12.41,2-12.5-12.3-.08-13.66,0-13.71,13.34-13.65,14.32.08,12.64-1.61,12.6,12.25C387.3,687.5,389.53,685.25,373.91,685.48Z"/></svg>