<svg version="1.1" id="Layer_1" xmlns="http://www.w3.org/2000/svg" xmlns:xlink="http://www.w3.org/1999/xlink" x="0px" y="0px"
	 width="100%" viewBox="0 0 640 480" enable-background="new 0 0 640 480" xml:space="preserve">
<path fill="#FFFFFF" opacity="1.000000" stroke="none" 
	d="
M449.000000,481.000000 
	C299.333374,481.000000 150.166733,481.000000 1.000080,481.000000 
	C1.000053,321.000061 1.000053,161.000153 1.000027,1.000166 
	C214.333206,1.000111 427.666412,1.000111 640.999756,1.000055 
	C640.999817,160.999832 640.999817,320.999664 640.999878,480.999756 
	C577.166687,481.000000 513.333313,481.000000 449.000000,481.000000 
M131.501694,200.074127 
	C138.591537,204.087173 146.327759,205.942520 154.356339,205.948883 
	C253.335388,206.027283 352.314514,205.996552 451.293610,206.025177 
	C453.242035,206.025742 455.223389,206.240463 457.133453,206.629837 
	C473.091370,209.882767 485.544556,227.054199 485.257080,242.968414 
	C484.903778,262.525726 466.243927,278.952240 448.638611,278.971039 
	C381.486176,279.042725 314.333649,279.000000 247.181168,279.000031 
	C246.014740,279.000031 244.712448,278.659760 243.705887,279.061066 
	C239.763626,280.632812 234.461685,281.395905 232.327057,284.370087 
	C227.561890,291.009430 229.628632,300.132690 235.631851,306.135834 
	C263.321136,333.824768 291.012238,361.511871 318.698730,389.203583 
	C319.756775,390.261780 320.857086,391.293274 321.797699,392.450928 
	C329.547211,401.988617 338.975983,408.073517 351.793396,408.034698 
	C385.619293,407.932220 419.446655,408.142639 453.271240,407.908600 
	C462.784790,407.842773 472.351532,407.137939 481.787201,405.907928 
	C500.540741,403.463318 517.533630,395.981140 533.861023,386.703186 
	C549.548523,377.788818 563.399170,366.515472 574.594910,352.557068 
	C583.283630,341.724335 591.267029,330.043579 597.725586,317.772125 
	C606.813904,300.503998 612.932861,281.928833 613.972778,262.170471 
	C614.651855,249.267273 616.041016,236.177109 614.637878,223.443329 
	C612.728699,206.117706 608.677979,189.037704 602.088806,172.659485 
	C594.616638,154.086273 584.881592,136.907211 571.457642,122.082573 
	C555.890869,104.891479 537.246216,91.903275 515.387268,83.804054 
	C500.214996,78.182381 484.737854,73.988762 468.370758,73.991188 
	C355.561218,74.007942 242.751709,74.000000 129.942184,74.000000 
	C99.115356,74.000000 68.288155,73.938408 37.462460,74.125198 
	C35.171021,74.139076 32.130505,75.312355 30.737043,77.011688 
	C24.890730,84.141296 25.872881,96.373749 32.337132,102.838654 
	C61.674335,132.178818 90.994766,161.535843 120.382378,190.825455 
	C123.639359,194.071579 127.286514,196.926224 131.501694,200.074127 
z"/>
<path fill="#FF3008" opacity="1.000000" stroke="none" 
	d="
M131.127197,200.018280 
	C127.286514,196.926224 123.639359,194.071579 120.382378,190.825455 
	C90.994766,161.535843 61.674335,132.178818 32.337132,102.838654 
	C25.872881,96.373749 24.890730,84.141296 30.737043,77.011688 
	C32.130505,75.312355 35.171021,74.139076 37.462460,74.125198 
	C68.288155,73.938408 99.115356,74.000000 129.942184,74.000000 
	C242.751709,74.000000 355.561218,74.007942 468.370758,73.991188 
	C484.737854,73.988762 500.214996,78.182381 515.387268,83.804054 
	C537.246216,91.903275 555.890869,104.891479 571.457642,122.082573 
	C584.881592,136.907211 594.616638,154.086273 602.088806,172.659485 
	C608.677979,189.037704 612.728699,206.117706 614.637878,223.443329 
	C616.041016,236.177109 614.651855,249.267273 613.972778,262.170471 
	C612.932861,281.928833 606.813904,300.503998 597.725586,317.772125 
	C591.267029,330.043579 583.283630,341.724335 574.594910,352.557068 
	C563.399170,366.515472 549.548523,377.788818 533.861023,386.703186 
	C517.533630,395.981140 500.540741,403.463318 481.787201,405.907928 
	C472.351532,407.137939 462.784790,407.842773 453.271240,407.908600 
	C419.446655,408.142639 385.619293,407.932220 351.793396,408.034698 
	C338.975983,408.073517 329.547211,401.988617 321.797699,392.450928 
	C320.857086,391.293274 319.756775,390.261780 318.698730,389.203583 
	C291.012238,361.511871 263.321136,333.824768 235.631851,306.135834 
	C229.628632,300.132690 227.561890,291.009430 232.327057,284.370087 
	C234.461685,281.395905 239.763626,280.632812 243.705887,279.061066 
	C244.712448,278.659760 246.014740,279.000031 247.181168,279.000031 
	C314.333649,279.000000 381.486176,279.042725 448.638611,278.971039 
	C466.243927,278.952240 484.903778,262.525726 485.257080,242.968414 
	C485.544556,227.054199 473.091370,209.882767 457.133453,206.629837 
	C455.223389,206.240463 453.242035,206.025742 451.293610,206.025177 
	C352.314514,205.996552 253.335388,206.027283 154.356339,205.948883 
	C146.327759,205.942520 138.591537,204.087173 131.127197,200.018280 
z"/>
</svg>