<svg version="1.1" id="Layer_1" xmlns="http://www.w3.org/2000/svg" xmlns:xlink="http://www.w3.org/1999/xlink" x="0px" y="0px"
	 width="100%" viewBox="0 0 400 400" enable-background="new 0 0 400 400" xml:space="preserve">
<path fill="#40C165" opacity="1.000000" stroke="none" 
	d="
M270.000000,401.000000 
	C180.027969,401.000000 90.555931,401.000000 1.041946,401.000000 
	C1.041946,267.736298 1.041946,134.472580 1.041946,1.104436 
	C134.221970,1.104436 267.444061,1.104436 400.833069,1.104436 
	C400.833069,134.333160 400.833069,267.666565 400.833069,401.000000 
	C357.472656,401.000000 313.986328,401.000000 270.000000,401.000000 
M233.982773,301.010895 
	C233.982773,301.010895 233.993591,300.924805 234.292160,301.446899 
	C234.707886,301.889648 235.123611,302.332428 235.413330,302.522980 
	C235.413330,302.522980 235.665695,302.397278 235.743149,303.111725 
	C237.542450,304.020721 239.341736,304.929718 241.031830,305.880951 
	C241.031830,305.880951 240.989746,305.771698 241.560974,306.316040 
	C243.254959,306.855957 244.928986,307.772736 246.646759,307.863739 
	C251.418396,308.116638 256.208221,308.026154 260.839691,308.682922 
	C260.058685,309.852295 259.277649,311.021637 258.272034,312.527252 
	C263.412231,313.684875 267.446350,311.600250 270.213959,308.440216 
	C275.403778,302.514526 281.087982,303.989746 286.889252,306.309204 
	C294.026550,309.162750 300.470490,313.895660 309.051422,311.351807 
	C313.873199,309.922363 319.214294,310.327423 324.171722,309.229828 
	C326.029327,308.818573 327.462738,306.491150 329.435883,304.740997 
	C329.663727,304.537109 329.873596,304.316162 330.722107,304.068573 
	C331.159760,304.056641 331.597412,304.044708 332.264008,304.102997 
	C332.264008,304.102997 332.619965,304.112701 332.619965,304.112701 
	C332.619965,304.112701 332.964752,304.018250 333.512360,304.028473 
	C333.694885,304.032135 333.877441,304.035767 334.281799,304.106842 
	C334.281799,304.106842 334.627869,304.116119 334.627869,304.116119 
	C334.627869,304.116119 334.963623,304.026489 335.525635,303.687317 
	C337.012482,301.788300 338.499329,299.889282 340.548553,298.181702 
	C341.703918,298.117828 342.859283,298.053955 344.694336,297.778687 
	C345.309296,295.796204 345.924255,293.813690 346.539185,291.831146 
	C345.696045,291.889465 344.852905,291.947784 343.340515,292.003235 
	C342.894501,292.002167 342.448456,292.001099 342.023376,291.148499 
	C342.227051,289.519104 342.389221,287.883209 342.642548,286.261566 
	C343.273804,282.220764 343.118500,278.827484 340.369171,274.986694 
	C337.683258,271.234436 331.488953,269.211487 333.810913,262.893646 
	C341.961151,263.326385 343.385315,259.201996 340.829315,253.440353 
	C338.774536,248.808548 334.616486,244.998383 330.999329,241.196991 
	C325.462067,235.377701 317.740723,234.949036 310.586151,235.012894 
	C299.231415,235.114227 287.184967,233.746170 277.621887,242.525406 
	C274.538055,240.247726 269.726440,239.159805 271.434357,233.492783 
	C271.484070,233.327805 268.926178,231.810577 268.422394,232.153915 
	C267.042755,233.094147 266.111145,234.691742 264.250549,236.031113 
	C263.499115,236.028091 262.747650,236.025070 261.608032,235.888824 
	C261.075562,236.194626 260.543091,236.500412 259.173676,236.844513 
	C257.777924,236.839279 256.382202,236.834061 254.589432,236.327087 
	C253.381592,235.894272 252.173767,235.461441 250.757095,234.218582 
	C250.493988,229.155869 250.230881,224.093155 249.741989,218.385040 
	C248.214874,216.068863 246.687775,213.752686 245.586761,212.082794 
	C242.129379,214.489380 239.588501,216.258011 236.232086,218.200562 
	C234.493393,218.337799 232.754715,218.475021 230.384750,218.662079 
	C230.384750,225.348541 230.384750,231.527390 230.384750,238.178284 
	C225.647507,238.178284 221.578125,238.178284 217.165619,238.178284 
	C217.165619,243.758820 217.165619,248.848282 217.251495,254.558838 
	C218.305466,255.085541 219.344849,256.034637 220.415726,256.071594 
	C228.449051,256.349152 229.028000,256.874969 229.052353,265.100128 
	C229.078445,273.912506 228.740829,282.744781 229.267502,291.526031 
	C229.439621,294.395721 231.823380,297.132721 233.049454,299.979523 
	C233.049454,299.979523 233.000443,299.833282 233.317764,300.263336 
	C233.568130,300.516144 233.818497,300.768982 233.982773,301.010895 
M79.694397,168.203629 
	C79.694397,168.203629 79.684906,168.278458 79.523315,167.700470 
	C79.171188,167.215286 78.819061,166.730103 78.529701,166.295273 
	C78.529701,166.295273 78.478683,166.357483 78.589180,165.520905 
	C78.044655,162.436554 77.103638,159.362762 77.021347,156.266113 
	C76.562057,138.983505 76.244026,121.696251 76.014572,104.408768 
	C75.889008,94.947845 76.010658,94.946220 66.356758,93.810471 
	C60.084290,93.072533 58.019104,94.636597 58.146183,101.045616 
	C58.560955,121.964058 56.468430,142.971741 60.164505,163.777222 
	C61.073391,168.893387 62.310963,173.928207 67.417503,176.667618 
	C67.417503,176.667618 67.479721,176.587509 67.482300,177.269760 
	C68.055664,181.245651 69.871643,183.862198 74.065407,183.936172 
	C74.065407,183.936172 74.371872,183.565918 74.663383,184.161850 
	C75.801720,184.758133 76.940056,185.354416 78.024429,185.980042 
	C78.024429,185.980042 78.030899,185.918945 78.262970,186.575455 
	C79.765701,187.777710 81.166389,189.842117 82.788704,190.034164 
	C90.120483,190.902023 97.510658,191.351837 104.891983,191.635818 
	C105.874702,191.673630 106.927032,189.902206 108.216118,188.777420 
	C108.216118,188.777420 108.545082,188.750839 109.327263,188.871094 
	C110.788986,188.935852 112.892189,189.654648 113.604858,188.955673 
	C117.302666,185.328873 120.128761,187.645813 123.958954,189.926544 
	C125.976067,189.998718 127.993187,190.070908 130.371628,190.618973 
	C133.002228,192.458496 134.580521,191.089905 135.901474,188.890945 
	C135.901474,188.890945 135.825851,188.857178 136.565796,188.890747 
	C137.757523,188.623474 138.949265,188.356216 140.679031,187.968292 
	C137.278168,183.148331 137.501450,178.829727 140.049255,174.382126 
	C140.748642,173.161270 140.930756,171.492905 140.913223,170.035141 
	C140.631088,146.604034 140.382156,123.171013 139.757202,99.748260 
	C139.703308,97.728439 137.331985,94.426346 135.555664,94.061005 
	C131.102951,93.145195 126.365486,93.380943 121.760521,93.579300 
	C120.364403,93.639427 117.628784,94.433838 120.079735,97.961212 
	C119.061180,121.331406 122.634361,144.900482 117.009758,168.022339 
	C117.009758,168.022339 117.069794,168.026962 116.386223,168.244858 
	C113.404457,169.575424 109.851143,170.273346 107.547493,172.354507 
	C100.476295,178.742767 93.743614,176.382721 86.755493,172.612000 
	C84.901932,171.611832 82.903419,170.880280 81.000595,170.000854 
	C81.000595,170.000854 80.973412,170.029587 80.775002,169.482910 
	C80.389839,169.053528 80.004669,168.624146 79.694397,168.203629 
M149.609589,95.079002 
	C149.399841,95.188377 149.212418,95.327789 148.327454,95.675468 
	C147.618881,95.883469 146.910324,96.091476 145.724136,96.540985 
	C145.472061,98.462959 145.006058,100.384407 145.001236,102.306999 
	C144.956436,120.203804 144.990921,138.100815 144.720596,156.539368 
	C144.813766,157.693314 144.906921,158.847275 144.997849,160.938385 
	C144.985992,166.422684 144.817932,171.912659 145.016342,177.389343 
	C145.152145,181.138092 145.798355,184.868362 146.858429,189.141159 
	C151.227768,189.060822 155.597122,188.980484 160.524033,188.659027 
	C162.601074,188.384933 164.794083,187.547073 166.732681,187.945908 
	C171.880096,189.004929 176.847214,191.014801 182.014221,191.887848 
	C191.554672,193.499863 199.961334,189.908752 207.963623,185.151459 
	C217.294678,179.604202 221.550217,170.969971 222.218124,160.545181 
	C222.669327,153.502762 222.304169,146.408066 222.304169,139.336746 
	C220.054794,138.108307 218.733902,136.593857 217.621445,134.939255 
	C215.599808,131.932404 214.061661,128.375198 209.330353,128.694641 
	C209.330353,128.694641 209.302475,128.527710 209.346573,127.805573 
	C208.101913,126.170479 207.203934,123.896904 205.557007,123.002716 
	C193.863846,116.653946 181.716812,115.602257 169.329971,120.942421 
	C164.409897,123.063553 162.119858,121.787453 162.012390,116.366028 
	C161.900543,110.725052 162.084930,105.075722 161.871994,99.440155 
	C161.736374,95.850983 160.536499,93.038345 155.353546,94.611794 
	C153.543228,94.714790 151.732910,94.817795 149.609589,95.079002 
M127.069984,213.348297 
	C127.069984,213.348297 127.003014,212.915756 126.592224,212.443665 
	C125.988564,212.211166 125.383919,211.773056 124.781372,211.775909 
	C104.173828,211.873581 83.566483,212.013031 62.848438,212.425522 
	C62.769119,212.741562 62.804001,213.044617 62.909019,213.420731 
	C62.909019,213.420731 62.896812,213.516617 62.236305,213.752853 
	C61.734375,214.190918 61.232445,214.628983 60.435539,215.420181 
	C60.526154,216.316040 60.616768,217.211914 60.832497,219.023941 
	C60.798363,247.653671 60.764229,276.283386 60.333019,305.251953 
	C59.385616,308.909424 62.079731,308.551544 64.144630,308.534760 
	C82.449127,308.385620 100.753616,308.205231 119.056587,307.932098 
	C121.676384,307.893036 124.288063,307.309692 127.289749,306.257629 
	C127.144768,301.139526 126.999779,296.021393 126.140564,290.552734 
	C114.835739,290.369110 103.531494,290.108521 92.225922,290.022644 
	C79.938774,289.929260 79.938240,290.000061 80.000885,277.801178 
	C80.041496,269.893799 80.360176,269.348328 88.528206,269.184387 
	C99.684814,268.960388 110.848854,269.107025 122.211021,269.592194 
	C123.640106,271.960297 124.444580,271.096039 124.998726,268.569092 
	C124.998726,268.569092 124.947121,268.091156 125.429016,267.921356 
	C125.598442,267.903961 125.767860,267.886566 126.690346,268.013550 
	C127.834816,269.755096 129.384720,271.355103 130.051163,273.263580 
	C132.489975,280.247345 133.250061,288.244873 137.167801,294.198914 
	C146.349335,308.152618 164.085434,313.596436 180.363190,308.827271 
	C184.124161,307.725311 188.149200,307.524719 192.104599,306.878540 
	C192.104599,306.878540 192.140869,306.926727 192.824707,307.309296 
	C197.702072,307.507324 202.584488,307.896179 207.453171,307.767059 
	C208.646622,307.735382 209.795166,306.010437 210.999298,304.119080 
	C211.024933,286.750061 211.050568,269.381042 211.501007,251.728806 
	C211.358337,250.814896 211.215652,249.900970 211.074585,248.107407 
	C211.055740,246.052979 211.036896,243.998550 210.844391,241.437515 
	C210.578384,240.975220 210.312363,240.512924 209.920959,239.339325 
	C209.918823,239.098602 209.916672,238.857864 209.692719,237.990173 
	C205.803055,235.123398 196.030624,235.155075 192.128174,238.167404 
	C192.128174,238.167404 192.005249,238.140091 191.312546,238.097137 
	C186.381454,236.968872 181.502869,235.440002 176.509674,234.785736 
	C160.029465,232.626297 146.074219,237.124268 136.244614,251.278122 
	C134.455612,253.854141 133.178299,256.797455 131.784058,259.629944 
	C131.212723,260.790649 130.957794,262.107147 130.558914,263.352753 
	C129.845673,262.825500 129.132431,262.298248 128.419189,261.770996 
	C127.769989,258.010315 131.543884,252.641083 124.239960,250.937286 
	C111.799095,250.936630 99.356789,251.033340 86.918671,250.848129 
	C84.601746,250.813629 82.301682,249.646423 79.995689,248.068359 
	C80.003822,244.748077 79.954910,241.426453 80.032707,238.107803 
	C80.168114,232.331589 81.335648,231.110489 87.155449,231.049347 
	C97.779404,230.937698 108.404671,230.950867 119.774384,230.920609 
	C122.062515,230.564896 124.350655,230.209183 127.069496,229.375519 
	C127.234268,229.238251 127.399033,229.100983 128.041962,228.454285 
	C127.797607,223.606415 127.553253,218.758530 127.144722,213.942413 
	C127.144722,213.942413 127.086906,213.785507 127.069984,213.348297 
M286.173584,128.664215 
	C286.173584,128.664215 286.114105,128.614868 286.417389,127.734512 
	C286.616150,126.826523 286.814880,125.918533 287.050964,124.974236 
	C287.050964,124.974236 286.988800,124.985352 286.452423,124.807770 
	C283.469940,120.138603 277.962402,122.058189 273.337189,119.762871 
	C272.232758,119.490219 271.128296,119.217567 270.231567,118.399261 
	C270.143311,117.401917 270.433380,115.879883 269.902191,115.496857 
	C267.427063,113.712189 259.416565,115.420998 256.226349,118.124695 
	C250.951813,119.641586 245.396576,119.414650 240.517319,123.355049 
	C237.584869,125.723244 235.222336,127.366760 235.181442,131.162292 
	C235.181442,131.162292 235.246796,131.178879 234.554016,131.318451 
	C232.681641,133.313354 230.083542,135.005081 229.095795,137.369522 
	C227.323471,141.612106 226.263733,146.208191 225.360458,150.746948 
	C223.135178,161.928558 227.557404,171.574585 233.196075,180.685516 
	C234.477173,182.755524 237.570786,183.623627 239.581863,185.336456 
	C246.814102,191.496109 255.391083,192.571091 264.361694,192.000137 
	C269.470245,191.674988 274.547089,190.876633 279.651367,190.448181 
	C281.755280,190.271591 290.992401,182.711960 291.368866,180.504578 
	C291.394562,180.354050 290.883484,180.111969 290.750732,179.240173 
	C291.371918,177.992569 291.993103,176.744949 292.673523,175.378326 
	C289.279602,173.039062 286.195160,170.913116 283.185303,168.838562 
	C272.762939,180.200516 261.201080,180.263916 252.685944,176.022491 
	C245.304794,172.345901 240.697296,165.399780 241.613663,159.233994 
	C246.524063,159.233994 251.494141,159.269394 256.463531,159.227158 
	C269.914032,159.112854 283.364227,158.965576 297.554199,158.645355 
	C299.341888,158.446396 301.129547,158.247421 302.921112,158.952927 
	C302.896240,162.276489 302.871368,165.600052 302.293701,169.436447 
	C301.815826,174.278061 301.323456,179.118317 300.863556,183.961655 
	C300.202728,190.920975 300.479492,191.129791 307.604523,191.034653 
	C310.566711,190.995102 313.533966,191.333771 317.238495,191.542023 
	C317.320435,191.196381 317.599915,190.017120 317.921112,188.831207 
	C317.921112,188.831207 317.891937,188.800308 318.525269,188.434586 
	C319.004883,186.420273 319.870392,184.411453 319.899109,182.390732 
	C320.045044,172.118622 319.944061,161.843307 319.987396,151.569336 
	C320.034180,140.485565 325.267975,135.041168 336.479095,134.173904 
	C337.318024,134.109009 338.101898,133.332001 338.963898,132.964737 
	C338.963898,132.964737 338.885315,132.912018 339.466736,132.566376 
	C339.264343,128.485062 339.061951,124.403755 338.373260,120.223686 
	C338.373260,120.223686 337.933136,119.994530 337.595245,119.488518 
	C334.238159,119.625504 330.870178,119.639458 327.527069,119.934738 
	C324.305298,120.219299 321.109222,120.794456 317.246552,121.124451 
	C316.815582,121.021324 316.384613,120.918198 315.337433,120.470947 
	C312.134949,120.191078 308.914154,120.041901 305.734772,119.596863 
	C302.106598,119.089005 300.985809,120.883057 301.114655,124.894836 
	C301.717194,129.917313 302.319733,134.939789 302.285248,140.178116 
	C298.329468,142.953522 298.394623,143.603149 302.888092,146.934738 
	C302.894226,149.271988 302.900360,151.609253 302.219513,154.029358 
	C299.552856,154.624222 298.454407,153.699127 297.930511,150.846207 
	C296.915924,145.321014 295.308990,139.904816 293.954346,134.441757 
	C293.141052,131.162033 291.110748,129.691757 287.818787,130.194946 
	C287.818787,130.194946 287.838593,130.290817 287.569092,129.761124 
	C287.120605,129.375854 286.672089,128.990570 286.173584,128.664215 
M291.283234,318.512054 
	C293.067566,318.512054 294.851898,318.512054 296.636200,318.512054 
	C296.778046,317.946320 296.919891,317.380615 297.061737,316.814880 
	C294.860077,315.905579 292.658417,314.996277 290.456726,314.086975 
	C290.526886,315.451965 290.597046,316.816986 291.283234,318.512054 
M335.440216,307.735596 
	C334.972137,308.335724 334.504028,308.935852 334.035919,309.535950 
	C334.557587,309.759918 335.079254,309.983887 335.600922,310.207825 
	C335.700500,309.449677 335.800110,308.691559 335.440216,307.735596 
M290.519562,311.491211 
	C290.519562,311.491211 290.487915,311.498901 290.519562,311.491211 
z"/>
<path fill="#020603" opacity="1.000000" stroke="none" 
	d="
M60.730515,215.067062 
	C61.232445,214.628983 61.734375,214.190918 63.035927,213.735901 
	C82.238297,213.665314 100.641045,213.611679 119.266777,213.621140 
	C119.489769,213.684219 119.936104,213.559311 120.367073,213.637177 
	C122.543938,213.671600 124.289841,213.628128 126.289505,213.682083 
	C126.724487,213.781494 126.905701,213.783493 127.086906,213.785507 
	C127.086906,213.785507 127.144722,213.942413 127.265457,214.396362 
	C127.445389,219.554764 127.504601,224.259247 127.563805,228.963715 
	C127.399033,229.100983 127.234268,229.238251 126.435455,229.522156 
	C110.772194,229.743362 95.742973,229.817947 80.290588,229.914703 
	C79.611198,236.314896 79.354973,242.692932 79.042511,249.497757 
	C80.156029,250.631485 81.321732,251.945145 82.496117,251.952972 
	C96.611664,252.046906 110.728508,251.947449 125.207748,252.150116 
	C125.692757,257.557587 125.815018,262.713379 125.937279,267.869202 
	C125.767860,267.886566 125.598442,267.903961 124.729958,267.934692 
	C109.140785,267.948029 94.250679,267.948029 79.249832,267.948029 
	C79.249832,275.930573 79.249832,283.296967 79.249832,290.903290 
	C95.351219,290.903290 111.103004,290.903290 126.854797,290.903290 
	C126.999779,296.021393 127.144768,301.139526 126.641037,306.585480 
	C106.030960,306.915985 86.069252,306.969971 66.108841,306.833984 
	C64.311646,306.821777 62.522812,305.582520 60.730095,304.913116 
	C60.764229,276.283386 60.798363,247.653671 60.858429,218.188705 
	C60.833080,216.591339 60.781796,215.829193 60.730515,215.067062 
z"/>
<path fill="#020703" opacity="1.000000" stroke="none" 
	d="
M209.914505,238.617111 
	C209.916672,238.857864 209.918823,239.098602 209.900726,240.023407 
	C209.937531,241.154388 209.994583,241.601273 209.977264,242.508636 
	C209.946320,263.621765 209.989761,284.274414 209.897766,305.324158 
	C208.310410,306.135376 206.868744,306.857117 205.404633,306.905945 
	C200.988068,307.053253 196.562759,306.938995 192.140869,306.926727 
	C192.140869,306.926727 192.104599,306.878540 192.034149,306.517120 
	C191.885147,304.693909 191.806595,303.232117 191.685043,300.970123 
	C183.207779,307.034454 174.234146,309.181946 164.454605,308.065643 
	C154.532837,306.933105 146.450958,302.442200 140.139343,294.821838 
	C130.665695,283.383881 128.991180,266.293701 137.252396,254.271042 
	C151.457214,233.598633 170.223175,231.490570 191.724609,243.093842 
	C191.837570,241.099854 191.921417,239.619965 192.005249,238.140091 
	C192.005249,238.140091 192.128174,238.167404 192.596100,238.124786 
	C198.680847,238.260498 204.297684,238.438812 209.914505,238.617111 
M180.732086,253.319168 
	C179.158432,252.853104 177.584778,252.387039 175.873871,251.755707 
	C175.873871,251.755707 175.666946,251.813477 174.963028,251.271454 
	C171.896301,251.492233 168.829559,251.713013 165.395691,251.922974 
	C165.395691,251.922974 165.068100,252.089096 164.432678,252.023148 
	C163.907120,252.313416 163.381577,252.603683 162.422668,252.937271 
	C162.422668,252.937271 162.014999,253.090515 161.452347,253.068878 
	C161.213531,253.342804 160.974701,253.616714 160.339569,254.000031 
	C160.339569,254.000031 160.023849,254.263336 159.452194,254.406754 
	C158.867828,254.898102 158.283447,255.389465 157.079102,256.114960 
	C155.512604,258.034485 153.650711,259.783936 152.430481,261.902893 
	C146.982422,271.363495 149.996643,283.658661 159.075943,289.714783 
	C168.451935,295.968811 180.744659,294.055450 187.748856,285.251831 
	C194.500153,276.766083 193.419388,264.479401 184.933914,256.322449 
	C183.639374,255.502747 182.344833,254.683044 181.053513,253.930542 
	C181.053513,253.930542 181.119812,253.919067 180.732086,253.319168 
z"/>
<path fill="#030A04" opacity="1.000000" stroke="none" 
	d="
M159.966461,188.900146 
	C155.597122,188.980484 151.227768,189.060822 146.586670,188.451294 
	C146.230331,178.538422 146.145782,169.315384 146.157043,159.679901 
	C146.190079,158.147308 146.127289,157.027176 146.162720,155.453140 
	C146.241226,135.432632 146.221497,115.866051 146.201752,96.299469 
	C146.910324,96.091476 147.618881,95.883469 148.926743,95.662262 
	C149.688446,95.609795 149.850845,95.570534 150.396637,95.611694 
	C151.559097,95.646545 152.338150,95.600967 153.304825,95.618439 
	C153.492432,95.681488 153.865540,95.549309 154.222183,95.606148 
	C155.053024,95.598946 155.527222,95.534897 156.425995,95.587479 
	C160.028290,95.508522 160.108215,97.581680 160.095139,99.930153 
	C160.042984,109.299911 160.073624,118.670135 160.073624,128.392776 
	C161.270355,127.958626 161.801971,127.905121 162.142975,127.622009 
	C176.412430,115.774940 195.763535,117.260933 209.302475,128.527710 
	C209.302475,128.527710 209.330353,128.694641 209.624283,128.949432 
	C222.284103,142.436508 224.571060,158.933731 215.988419,172.992477 
	C207.425430,187.019073 190.339981,193.721573 174.505173,188.743393 
	C169.592148,187.198822 165.114243,184.270203 159.966461,181.744278 
	C159.966461,184.298248 159.966461,186.599197 159.966461,188.900146 
M164.780396,168.619446 
	C170.949448,176.546661 178.964005,179.792679 188.880722,177.943405 
	C201.016006,175.680435 208.939438,163.610397 206.998779,150.494858 
	C205.298904,139.006729 193.382935,130.828644 181.526489,131.682312 
	C166.040253,132.797302 153.831848,151.641388 164.780396,168.619446 
z"/>
<path fill="#020703" opacity="1.000000" stroke="none" 
	d="
M130.010300,190.143082 
	C127.993187,190.070908 125.976067,189.998718 123.355606,189.536835 
	C122.326935,186.643738 121.901604,184.140366 121.447601,181.468185 
	C117.035019,183.958801 112.790047,186.354813 108.545074,188.750824 
	C108.545082,188.750839 108.216118,188.777420 107.660225,188.865570 
	C97.051765,191.404572 87.373543,190.269226 78.030899,185.918945 
	C78.030899,185.918945 78.024429,185.980042 77.859581,185.707230 
	C76.587112,184.811584 75.479492,184.188751 74.371872,183.565918 
	C74.371872,183.565918 74.065407,183.936172 74.030243,183.482178 
	C71.823296,180.881287 69.651505,178.734390 67.479721,176.587509 
	C67.479721,176.587509 67.417503,176.667618 67.362579,176.308350 
	C62.793709,168.894135 60.793697,161.229919 60.892220,152.809662 
	C61.090603,135.854523 60.939297,118.895363 60.956657,101.937889 
	C60.958614,100.025139 61.117310,98.112556 61.196140,96.359695 
	C66.115601,96.359695 70.338211,96.359695 74.944565,96.359695 
	C74.944565,98.623352 74.944099,100.428932 74.944626,102.234512 
	C74.949577,119.025749 74.707924,135.823059 75.120834,152.604248 
	C75.234245,157.213409 77.305717,161.774399 78.478683,166.357483 
	C78.478683,166.357483 78.529701,166.295273 78.572998,166.573090 
	C78.972496,167.326752 79.328697,167.802612 79.684906,168.278458 
	C79.684906,168.278458 79.694397,168.203629 79.740898,168.483917 
	C80.182739,169.186005 80.578072,169.607788 80.973412,170.029587 
	C80.973412,170.029587 81.000595,170.000854 81.100258,170.332764 
	C92.489792,181.465012 108.956116,180.254150 117.069794,168.026962 
	C117.069794,168.026962 117.009758,168.022339 117.298897,167.830688 
	C118.989861,162.253784 121.439278,156.900131 121.602913,151.477493 
	C122.160042,133.015030 121.911209,114.528252 122.003326,96.060852 
	C122.036591,96.070946 122.054825,96.003853 122.305588,95.958542 
	C122.751869,95.643539 122.947388,95.373848 123.563675,95.083054 
	C127.852844,95.452415 131.721252,95.842865 135.825851,96.257156 
	C135.825851,127.477806 135.825851,158.167496 135.825851,188.857178 
	C135.825851,188.857178 135.901474,188.890945 135.502228,188.886871 
	C133.405426,189.302902 131.707870,189.722992 130.010300,190.143082 
z"/>
<path fill="#030904" opacity="1.000000" stroke="none" 
	d="
M296.814545,158.831375 
	C283.364227,158.965576 269.914032,159.112854 256.463531,159.227158 
	C251.494141,159.269394 246.524063,159.233994 241.613663,159.233994 
	C240.697296,165.399780 245.304794,172.345901 252.685944,176.022491 
	C261.201080,180.263916 272.762939,180.200516 283.185303,168.838562 
	C286.195160,170.913116 289.279602,173.039062 292.673523,175.378326 
	C291.993103,176.744949 291.371918,177.992569 290.388947,179.714020 
	C287.552246,181.821350 285.136902,183.554688 282.592896,185.072372 
	C263.900787,196.223557 238.746475,189.155304 229.851761,169.871887 
	C223.472656,156.042221 226.100601,143.053818 235.246796,131.178879 
	C235.246796,131.178879 235.181442,131.162292 235.487701,131.045807 
	C246.487808,119.775978 259.525452,117.833862 274.174988,121.451347 
	C278.324097,123.988159 282.219086,126.301514 286.114105,128.614868 
	C286.114105,128.614868 286.173584,128.664215 286.316498,128.922424 
	C286.919128,129.550705 287.378876,129.920761 287.838593,130.290817 
	C287.838593,130.290817 287.818787,130.194946 287.896240,130.525375 
	C294.992828,138.894104 296.658478,148.624207 296.814545,158.831375 
M241.092834,147.801117 
	C241.563202,148.162064 242.032227,148.836243 242.504166,148.838287 
	C255.617920,148.895203 268.731964,148.883942 282.533173,148.883942 
	C281.813812,146.587753 281.492432,144.632416 280.627045,142.958298 
	C276.588348,135.145477 269.815216,131.236237 261.274719,131.186264 
	C251.900421,131.131393 244.713669,137.169098 241.092834,147.801117 
z"/>
<path fill="#020603" opacity="1.000000" stroke="none" 
	d="
M217.165619,253.937759 
	C217.165619,248.848282 217.165619,243.758820 217.165619,238.178284 
	C221.578125,238.178284 225.647507,238.178284 230.384750,238.178284 
	C230.384750,231.527390 230.384750,225.348541 230.384750,218.662079 
	C232.754715,218.475021 234.493393,218.337799 237.079834,218.205994 
	C241.507370,218.506500 245.087143,218.801559 248.562592,219.547806 
	C248.458267,225.893997 248.458267,231.788971 248.458267,237.917023 
	C255.043442,237.917023 260.971924,237.917023 267.276337,238.151993 
	C267.731201,243.593079 267.810181,248.799210 267.431274,253.980698 
	C260.937042,253.956070 254.900681,253.956070 248.410202,253.956070 
	C248.528183,256.407867 248.612976,258.169678 248.581085,260.327148 
	C248.432770,268.542206 248.319870,276.362427 248.397705,284.180756 
	C248.450500,289.482666 249.977692,290.938721 255.338318,291.068268 
	C259.442352,291.167419 263.550690,291.087982 268.842621,291.087982 
	C268.152405,296.939789 267.552551,302.025574 266.491943,307.048981 
	C257.684052,306.581635 249.336899,306.176666 240.989746,305.771698 
	C240.989746,305.771698 241.031830,305.880951 240.886322,305.601501 
	C239.049088,304.347107 237.357391,303.372192 235.665695,302.397278 
	C235.665695,302.397278 235.413330,302.522980 235.415222,302.322083 
	C234.942596,301.722382 234.468094,301.323578 233.993591,300.924805 
	C233.993591,300.924805 233.982773,301.010895 233.940857,300.743378 
	C233.599457,300.261658 233.299957,300.047455 233.000458,299.833282 
	C233.000443,299.833282 233.049454,299.979523 232.999512,299.578125 
	C232.170212,294.835236 230.853714,290.510437 230.718231,286.148895 
	C230.389877,275.579071 230.611511,264.992126 230.611511,253.937759 
	C225.736649,253.937759 221.451141,253.937759 217.165619,253.937759 
z"/>
<path fill="#020902" opacity="1.000000" stroke="none" 
	d="
M337.933136,119.994530 
	C337.933136,119.994530 338.373260,120.223686 338.637512,120.700775 
	C338.896301,125.089256 338.890808,129.000641 338.885315,132.912018 
	C338.885315,132.912018 338.963898,132.964737 338.492950,132.950409 
	C322.640503,133.193832 317.925873,137.977951 317.912048,153.354584 
	C317.901428,165.169830 317.898376,176.985062 317.891937,188.800308 
	C317.891937,188.800308 317.921112,188.831207 317.446106,188.866516 
	C313.681519,188.921432 310.379303,189.110291 307.109283,188.866699 
	C305.999786,188.784027 304.971619,187.609802 303.964294,186.475159 
	C303.976044,165.373260 303.929749,144.730621 303.968811,123.663452 
	C305.043884,122.487091 305.971649,121.209419 307.035217,121.084053 
	C309.977722,120.737221 312.976868,120.871178 315.953644,120.815079 
	C316.384613,120.918198 316.815582,121.021324 317.533661,121.560806 
	C317.820770,123.711754 317.820770,125.426331 317.820770,128.817383 
	C323.742584,121.349823 330.633484,120.115402 337.933136,119.994530 
z"/>
<path fill="#43B866" opacity="1.000000" stroke="none" 
	d="
M267.889130,254.005325 
	C267.810181,248.799210 267.731201,243.593079 267.223877,237.962006 
	C266.197723,237.034393 265.599915,236.531738 265.002136,236.029083 
	C266.111145,234.691742 267.042755,233.094147 268.422394,232.153915 
	C268.926178,231.810577 271.484070,233.327805 271.434357,233.492783 
	C269.726440,239.159805 274.538055,240.247726 277.655823,243.120667 
	C277.208313,245.516785 276.726868,247.317657 276.198242,249.084412 
	C276.151093,249.050308 276.219116,248.955994 276.033386,249.276611 
	C275.593384,250.288498 275.339142,250.979782 275.172241,251.711823 
	C275.259583,251.752579 275.178314,251.927383 275.051758,252.108932 
	C274.891083,252.850891 274.856903,253.411285 274.826996,254.425629 
	C274.062897,265.215973 277.448029,271.091583 287.398651,274.958710 
	C293.078278,277.165985 299.151367,278.360809 305.281799,280.268372 
	C310.728271,281.983887 315.940216,283.442535 321.118408,284.906586 
	C321.084625,284.912018 321.116058,284.851257 321.042725,285.221313 
	C317.955566,294.185455 302.485931,295.992706 295.682220,288.765015 
	C293.970490,286.946625 291.265106,286.063568 288.679260,284.805481 
	C287.890839,284.815887 287.439514,284.771454 286.870819,284.682251 
	C286.500122,284.585510 286.256500,284.615845 285.579315,284.798950 
	C282.743683,284.819275 280.351349,284.769104 277.719116,284.590393 
	C276.970520,284.265045 276.461853,284.068237 276.078674,283.600830 
	C277.252014,280.574005 278.299805,277.817749 279.816498,273.828003 
	C278.892334,273.093475 276.947021,271.547455 275.000854,270.000702 
	C275.000000,270.000000 274.998627,269.998871 274.950073,269.600739 
	C274.341248,266.448120 274.142914,263.548035 273.111298,260.983154 
	C272.215485,258.755890 270.376678,256.907898 268.784180,254.736328 
	C268.381226,254.377289 268.139709,254.185623 267.889130,254.005325 
z"/>
<path fill="#43B866" opacity="1.000000" stroke="none" 
	d="
M266.952698,307.111328 
	C267.552551,302.025574 268.152405,296.939789 268.842621,291.087982 
	C263.550690,291.087982 259.442352,291.167419 255.338318,291.068268 
	C249.977692,290.938721 248.450500,289.482666 248.397705,284.180756 
	C248.319870,276.362427 248.432770,268.542206 248.808701,260.061951 
	C251.094238,258.259705 253.035507,257.118317 254.887970,256.387085 
	C254.531128,263.727203 254.103241,270.655457 254.030487,277.587433 
	C253.903702,289.668182 253.991364,289.482300 266.025574,289.219513 
	C269.536926,289.142822 272.132874,288.786804 273.225769,285.420105 
	C276.272064,298.106964 284.348694,304.981934 296.573242,307.267700 
	C307.514832,309.313568 318.289001,308.800476 328.845337,304.807861 
	C328.925323,304.885834 329.089569,305.037354 329.089569,305.037354 
	C327.462738,306.491150 326.029327,308.818573 324.171722,309.229828 
	C319.214294,310.327423 313.873199,309.922363 309.051422,311.351807 
	C300.470490,313.895660 294.026550,309.162750 286.889252,306.309204 
	C281.087982,303.989746 275.403778,302.514526 270.213959,308.440216 
	C267.446350,311.600250 263.412231,313.684875 258.272034,312.527252 
	C259.277649,311.021637 260.058685,309.852295 261.304779,308.363098 
	C263.497467,307.732605 265.225098,307.421967 266.952698,307.111328 
z"/>
<path fill="#46BA68" opacity="1.000000" stroke="none" 
	d="
M332.035065,304.032806 
	C331.597412,304.044708 331.159760,304.056641 330.364197,304.036682 
	C330.006317,304.004791 329.938538,303.939301 330.147888,303.677429 
	C342.390381,294.821259 344.429810,281.472595 334.155090,272.942047 
	C329.927551,269.432129 323.878662,267.801453 318.400757,266.192535 
	C311.738861,264.235901 304.715912,263.513245 298.043854,261.583618 
	C296.049896,261.006958 293.305786,258.061279 293.438538,256.403931 
	C293.589874,254.514908 296.407074,252.624603 298.390839,251.182007 
	C299.489075,250.383331 301.243561,250.298019 302.716919,250.235199 
	C311.523285,249.859756 319.593292,251.791534 321.338440,260.155518 
	C323.234833,260.688202 324.936890,260.884003 326.602020,261.248535 
	C328.748108,261.718353 330.864685,262.323273 332.993958,262.869995 
	C331.488953,269.211487 337.683258,271.234436 340.369171,274.986694 
	C343.118500,278.827484 343.273804,282.220764 342.642548,286.261566 
	C342.389221,287.883209 342.227051,289.519104 341.883362,291.900635 
	C341.157623,294.431915 340.571930,296.211121 339.986206,297.990295 
	C338.499329,299.889282 337.012482,301.788300 335.019043,303.859650 
	C334.512421,304.031982 334.059967,304.039368 334.059967,304.039368 
	C333.877441,304.035767 333.694885,304.032135 333.006378,304.026001 
	C332.500397,304.023499 332.035065,304.032806 332.035065,304.032806 
z"/>
<path fill="#48B969" opacity="1.000000" stroke="none" 
	d="
M136.195831,188.873962 
	C135.825851,158.167496 135.825851,127.477806 135.825851,96.257156 
	C131.721252,95.842865 127.852844,95.452415 123.360504,95.203934 
	C122.479683,95.534492 122.252426,95.753815 122.054825,96.003853 
	C122.054825,96.003853 122.036591,96.070946 121.744873,96.127289 
	C120.998772,96.466148 120.544388,96.748657 120.090004,97.031166 
	C117.628784,94.433838 120.364403,93.639427 121.760521,93.579300 
	C126.365486,93.380943 131.102951,93.145195 135.555664,94.061005 
	C137.331985,94.426346 139.703308,97.728439 139.757202,99.748260 
	C140.382156,123.171013 140.631088,146.604034 140.913223,170.035141 
	C140.930756,171.492905 140.748642,173.161270 140.049255,174.382126 
	C137.501450,178.829727 137.278168,183.148331 140.679031,187.968292 
	C138.949265,188.356216 137.757523,188.623474 136.195831,188.873962 
z"/>
<path fill="#4CAC68" opacity="1.000000" stroke="none" 
	d="
M191.658905,238.118622 
	C191.921417,239.619965 191.837570,241.099854 191.724609,243.093842 
	C170.223175,231.490570 151.457214,233.598633 137.252396,254.271042 
	C128.991180,266.293701 130.665695,283.383881 140.139343,294.821838 
	C146.450958,302.442200 154.532837,306.933105 164.454605,308.065643 
	C174.234146,309.181946 183.207779,307.034454 191.685043,300.970123 
	C191.806595,303.232117 191.885147,304.693909 192.008209,306.532532 
	C188.149200,307.524719 184.124161,307.725311 180.363190,308.827271 
	C164.085434,313.596436 146.349335,308.152618 137.167801,294.198914 
	C133.250061,288.244873 132.489975,280.247345 130.051163,273.263580 
	C129.384720,271.355103 127.834816,269.755096 126.313812,267.941376 
	C125.815018,262.713379 125.692757,257.557587 125.247879,251.933365 
	C124.925255,251.464966 124.986496,251.029007 124.986496,251.029007 
	C131.543884,252.641083 127.769989,258.010315 128.419189,261.770996 
	C129.132431,262.298248 129.845673,262.825500 130.558914,263.352753 
	C130.957794,262.107147 131.212723,260.790649 131.784058,259.629944 
	C133.178299,256.797455 134.455612,253.854141 136.244614,251.278122 
	C146.074219,237.124268 160.029465,232.626297 176.509674,234.785736 
	C181.502869,235.440002 186.381454,236.968872 191.658905,238.118622 
z"/>
<path fill="#47A063" opacity="1.000000" stroke="none" 
	d="
M78.533936,165.939194 
	C77.305717,161.774399 75.234245,157.213409 75.120834,152.604248 
	C74.707924,135.823059 74.949577,119.025749 74.944626,102.234512 
	C74.944099,100.428932 74.944565,98.623352 74.944565,96.359695 
	C70.338211,96.359695 66.115601,96.359695 61.196140,96.359695 
	C61.117310,98.112556 60.958614,100.025139 60.956657,101.937889 
	C60.939297,118.895363 61.090603,135.854523 60.892220,152.809662 
	C60.793697,161.229919 62.793709,168.894135 67.411331,176.294373 
	C62.310963,173.928207 61.073391,168.893387 60.164505,163.777222 
	C56.468430,142.971741 58.560955,121.964058 58.146183,101.045616 
	C58.019104,94.636597 60.084290,93.072533 66.356758,93.810471 
	C76.010658,94.946220 75.889008,94.947845 76.014572,104.408768 
	C76.244026,121.696251 76.562057,138.983505 77.021347,156.266113 
	C77.103638,159.362762 78.044655,162.436554 78.533936,165.939194 
z"/>
<path fill="#49AC67" opacity="1.000000" stroke="none" 
	d="
M234.900406,131.248657 
	C226.100601,143.053818 223.472656,156.042221 229.851761,169.871887 
	C238.746475,189.155304 263.900787,196.223557 282.592896,185.072372 
	C285.136902,183.554688 287.552246,181.821350 290.324585,180.050156 
	C290.883484,180.111969 291.394562,180.354050 291.368866,180.504578 
	C290.992401,182.711960 281.755280,190.271591 279.651367,190.448181 
	C274.547089,190.876633 269.470245,191.674988 264.361694,192.000137 
	C255.391083,192.571091 246.814102,191.496109 239.581863,185.336456 
	C237.570786,183.623627 234.477173,182.755524 233.196075,180.685516 
	C227.557404,171.574585 223.135178,161.928558 225.360458,150.746948 
	C226.263733,146.208191 227.323471,141.612106 229.095795,137.369522 
	C230.083542,135.005081 232.681641,133.313354 234.900406,131.248657 
z"/>
<path fill="#49AC67" opacity="1.000000" stroke="none" 
	d="
M160.245239,188.779587 
	C159.966461,186.599197 159.966461,184.298248 159.966461,181.744278 
	C165.114243,184.270203 169.592148,187.198822 174.505173,188.743393 
	C190.339981,193.721573 207.425430,187.019073 215.988419,172.992477 
	C224.571060,158.933731 222.284103,142.436508 209.708298,128.959534 
	C214.061661,128.375198 215.599808,131.932404 217.621445,134.939255 
	C218.733902,136.593857 220.054794,138.108307 222.304169,139.336746 
	C222.304169,146.408066 222.669327,153.502762 222.218124,160.545181 
	C221.550217,170.969971 217.294678,179.604202 207.963623,185.151459 
	C199.961334,189.908752 191.554672,193.499863 182.014221,191.887848 
	C176.847214,191.014801 171.880096,189.004929 166.732681,187.945908 
	C164.794083,187.547073 162.601074,188.384933 160.245239,188.779587 
z"/>
<path fill="#51AA6B" opacity="1.000000" stroke="none" 
	d="
M333.402435,262.881836 
	C330.864685,262.323273 328.748108,261.718353 326.602020,261.248535 
	C324.936890,260.884003 323.234833,260.688202 321.794312,260.185425 
	C327.581726,259.953522 333.123993,259.953522 338.897827,259.953522 
	C338.036774,250.495209 333.926056,243.940842 326.062836,240.373932 
	C321.771179,238.427155 316.992035,236.953278 312.322693,236.554184 
	C298.559296,235.377823 285.321930,236.494431 276.245392,249.118530 
	C276.726868,247.317657 277.208313,245.516785 277.844116,243.406891 
	C287.184967,233.746170 299.231415,235.114227 310.586151,235.012894 
	C317.740723,234.949036 325.462067,235.377701 330.999329,241.196991 
	C334.616486,244.998383 338.774536,248.808548 340.829315,253.440353 
	C343.385315,259.201996 341.961151,263.326385 333.402435,262.881836 
z"/>
<path fill="#49AC67" opacity="1.000000" stroke="none" 
	d="
M209.324524,128.166641 
	C195.763535,117.260933 176.412430,115.774940 162.142975,127.622009 
	C161.801971,127.905121 161.270355,127.958626 160.073624,128.392776 
	C160.073624,118.670135 160.042984,109.299911 160.095139,99.930153 
	C160.108215,97.581680 160.028290,95.508522 156.416962,95.448883 
	C155.983383,95.193665 155.979630,94.915916 155.979630,94.915916 
	C160.536499,93.038345 161.736374,95.850983 161.871994,99.440155 
	C162.084930,105.075722 161.900543,110.725052 162.012390,116.366028 
	C162.119858,121.787453 164.409897,123.063553 169.329971,120.942421 
	C181.716812,115.602257 193.863846,116.653946 205.557007,123.002716 
	C207.203934,123.896904 208.101913,126.170479 209.324524,128.166641 
z"/>
<path fill="#47A063" opacity="1.000000" stroke="none" 
	d="
M120.084869,97.496185 
	C120.544388,96.748657 120.998772,96.466148 121.711609,96.117195 
	C121.911209,114.528252 122.160042,133.015030 121.602913,151.477493 
	C121.439278,156.900131 118.989861,162.253784 117.315483,167.855835 
	C122.634361,144.900482 119.061180,121.331406 120.084869,97.496185 
z"/>
<path fill="#52AE6D" opacity="1.000000" stroke="none" 
	d="
M318.208618,188.617447 
	C317.898376,176.985062 317.901428,165.169830 317.912048,153.354584 
	C317.925873,137.977951 322.640503,133.193832 338.466675,132.911041 
	C338.101898,133.332001 337.318024,134.109009 336.479095,134.173904 
	C325.267975,135.041168 320.034180,140.485565 319.987396,151.569336 
	C319.944061,161.843307 320.045044,172.118622 319.899109,182.390732 
	C319.870392,184.411453 319.004883,186.420273 318.208618,188.617447 
z"/>
<path fill="#4AAF6E" opacity="1.000000" stroke="none" 
	d="
M126.035736,213.584656 
	C124.289841,213.628128 122.543938,213.671600 120.262238,213.579575 
	C119.481987,213.378983 119.254440,213.416977 119.043785,213.558044 
	C100.641045,213.611679 82.238297,213.665314 63.366180,213.617783 
	C62.896812,213.516617 62.909019,213.420731 62.929863,213.079498 
	C62.953510,212.541000 62.956310,212.343735 62.959106,212.146469 
	C83.566483,212.013031 104.173828,211.873581 124.781372,211.775909 
	C125.383919,211.773056 125.988564,212.211166 126.623718,212.774414 
	C126.422127,213.230667 126.215637,213.390503 126.035736,213.584656 
z"/>
<path fill="#5DA971" opacity="1.000000" stroke="none" 
	d="
M217.208557,254.248291 
	C221.451141,253.937759 225.736649,253.937759 230.611511,253.937759 
	C230.611511,264.992126 230.389877,275.579071 230.718231,286.148895 
	C230.853714,290.510437 232.170212,294.835236 233.072617,299.553589 
	C231.823380,297.132721 229.439621,294.395721 229.267502,291.526031 
	C228.740829,282.744781 229.078445,273.912506 229.052353,265.100128 
	C229.028000,256.874969 228.449051,256.349152 220.415726,256.071594 
	C219.344849,256.034637 218.305466,255.085541 217.208557,254.248291 
z"/>
<path fill="#58B172" opacity="1.000000" stroke="none" 
	d="
M126.497681,290.728027 
	C111.103004,290.903290 95.351219,290.903290 79.249832,290.903290 
	C79.249832,283.296967 79.249832,275.930573 79.249832,267.948029 
	C94.250679,267.948029 109.140785,267.948029 124.489014,268.019592 
	C124.947121,268.091156 124.998726,268.569092 124.632515,268.804199 
	C123.514107,269.057770 122.761909,269.076263 122.009712,269.094788 
	C110.848854,269.107025 99.684814,268.960388 88.528206,269.184387 
	C80.360176,269.348328 80.041496,269.893799 80.000885,277.801178 
	C79.938240,290.000061 79.938774,289.929260 92.225922,290.022644 
	C103.531494,290.108521 114.835739,290.369110 126.497681,290.728027 
z"/>
<path fill="#49AC67" opacity="1.000000" stroke="none" 
	d="
M273.920898,121.227890 
	C259.525452,117.833862 246.487808,119.775978 235.492584,131.079163 
	C235.222336,127.366760 237.584869,125.723244 240.517319,123.355049 
	C245.396576,119.414650 250.951813,119.641586 257.065430,118.071655 
	C261.944305,118.327385 265.984070,118.636154 270.023865,118.944916 
	C271.128296,119.217567 272.232758,119.490219 273.643005,120.194366 
	C273.939545,120.826530 273.930237,121.027214 273.920898,121.227890 
z"/>
<path fill="#47A063" opacity="1.000000" stroke="none" 
	d="
M116.728012,168.135910 
	C108.956116,180.254150 92.489792,181.465012 81.085693,170.345032 
	C82.903419,170.880280 84.901932,171.611832 86.755493,172.612000 
	C93.743614,176.382721 100.476295,178.742767 107.547493,172.354507 
	C109.851143,170.273346 113.404457,169.575424 116.728012,168.135910 
z"/>
<path fill="#4AB46A" opacity="1.000000" stroke="none" 
	d="
M297.184387,158.738373 
	C296.658478,148.624207 294.992828,138.894104 287.848328,130.535461 
	C291.110748,129.691757 293.141052,131.162033 293.954346,134.441757 
	C295.308990,139.904816 296.915924,145.321014 297.930511,150.846207 
	C298.454407,153.699127 299.552856,154.624222 302.586243,154.398392 
	C302.941040,155.861099 302.929138,156.954788 302.917236,158.048462 
	C301.129547,158.247421 299.341888,158.446396 297.184387,158.738373 
z"/>
<path fill="#4AB46A" opacity="1.000000" stroke="none" 
	d="
M303.906281,186.934387 
	C304.971619,187.609802 305.999786,188.784027 307.109283,188.866699 
	C310.379303,189.110291 313.681519,188.921432 317.425293,188.869858 
	C317.599915,190.017120 317.320435,191.196381 317.238495,191.542023 
	C313.533966,191.333771 310.566711,190.995102 307.604523,191.034653 
	C300.479492,191.129791 300.202728,190.920975 300.863556,183.961655 
	C301.323456,179.118317 301.815826,174.278061 302.602783,169.654892 
	C303.243347,175.560349 303.574799,181.247375 303.906281,186.934387 
z"/>
<path fill="#47A063" opacity="1.000000" stroke="none" 
	d="
M60.531555,305.082520 
	C62.522812,305.582520 64.311646,306.821777 66.108841,306.833984 
	C86.069252,306.969971 106.030960,306.915985 126.447906,306.945801 
	C124.288063,307.309692 121.676384,307.893036 119.056587,307.932098 
	C100.753616,308.205231 82.449127,308.385620 64.144630,308.534760 
	C62.079731,308.551544 59.385616,308.909424 60.531555,305.082520 
z"/>
<path fill="#5DA971" opacity="1.000000" stroke="none" 
	d="
M303.964294,186.475159 
	C303.574799,181.247375 303.243347,175.560349 302.879211,169.398468 
	C302.871368,165.600052 302.896240,162.276489 302.919189,158.500702 
	C302.929138,156.954788 302.941040,155.861099 302.929718,154.356964 
	C302.900360,151.609253 302.894226,149.271988 302.911743,146.059998 
	C302.930969,143.444275 302.926605,141.703262 302.922241,139.962265 
	C302.319733,134.939789 301.717194,129.917313 301.453186,124.478424 
	C302.488953,124.070656 303.186188,124.079308 303.883453,124.087967 
	C303.929749,144.730621 303.976044,165.373260 303.964294,186.475159 
z"/>
<path fill="#47A063" opacity="1.000000" stroke="none" 
	d="
M78.146935,186.247192 
	C87.373543,190.269226 97.051765,191.404572 107.525726,188.961182 
	C106.927032,189.902206 105.874702,191.673630 104.891983,191.635818 
	C97.510658,191.351837 90.120483,190.902023 82.788704,190.034164 
	C81.166389,189.842117 79.765701,187.777710 78.146935,186.247192 
z"/>
<path fill="#5DA971" opacity="1.000000" stroke="none" 
	d="
M264.626343,236.030090 
	C265.599915,236.531738 266.197723,237.034393 266.847961,237.727036 
	C260.971924,237.917023 255.043442,237.917023 248.458267,237.917023 
	C248.458267,231.788971 248.458267,225.893997 248.779114,219.532715 
	C249.388947,219.047241 249.678207,219.035248 249.967773,219.030441 
	C250.230881,224.093155 250.493988,229.155869 251.051453,234.894684 
	C252.559357,235.990128 253.772903,236.409470 254.986450,236.828827 
	C256.382202,236.834061 257.777924,236.839279 259.854431,236.772324 
	C261.022186,236.474106 261.509216,236.248077 261.996216,236.022064 
	C262.747650,236.025070 263.499115,236.028091 264.626343,236.030090 
z"/>
<path fill="#58B172" opacity="1.000000" stroke="none" 
	d="
M210.033203,304.927063 
	C209.989761,284.274414 209.946320,263.621765 210.218765,242.481476 
	C210.534653,241.993820 211.018051,241.944122 211.018051,241.944122 
	C211.036896,243.998550 211.055740,246.052979 211.062057,248.925217 
	C211.058426,250.499359 211.067322,251.255676 211.076202,252.012009 
	C211.050568,269.381042 211.024933,286.750061 210.748993,304.559204 
	C210.498688,304.999329 210.033203,304.927063 210.033203,304.927063 
z"/>
<path fill="#58B172" opacity="1.000000" stroke="none" 
	d="
M79.098740,249.070969 
	C79.354973,242.692932 79.611198,236.314896 80.778091,229.994049 
	C85.512672,230.106171 89.337387,230.128906 93.160362,230.222519 
	C101.783829,230.433716 110.406433,230.679993 119.029388,230.911972 
	C108.404671,230.950867 97.779404,230.937698 87.155449,231.049347 
	C81.335648,231.110489 80.168114,232.331589 80.032707,238.107803 
	C79.954910,241.426453 80.003822,244.748077 79.770851,248.550232 
	C79.546013,249.032089 79.098740,249.070969 79.098740,249.070969 
z"/>
<path fill="#52AE6D" opacity="1.000000" stroke="none" 
	d="
M145.962952,96.420227 
	C146.221497,115.866051 146.241226,135.432632 145.897461,155.479584 
	C145.356781,155.972549 145.179596,155.985153 145.002411,155.997757 
	C144.990921,138.100815 144.956436,120.203804 145.001236,102.306999 
	C145.006058,100.384407 145.472061,98.462959 145.962952,96.420227 
z"/>
<path fill="#47A063" opacity="1.000000" stroke="none" 
	d="
M119.401886,230.916290 
	C110.406433,230.679993 101.783829,230.433716 93.160362,230.222519 
	C89.337387,230.128906 85.512672,230.106171 81.201256,229.971893 
	C95.742973,229.817947 110.772194,229.743362 126.220093,229.761108 
	C124.350655,230.209183 122.062515,230.564896 119.401886,230.916290 
z"/>
<path fill="#64AF7A" opacity="1.000000" stroke="none" 
	d="
M79.042511,249.497757 
	C79.098740,249.070969 79.546013,249.032089 79.769928,249.017029 
	C82.301682,249.646423 84.601746,250.813629 86.918671,250.848129 
	C99.356789,251.033340 111.799095,250.936630 124.613228,250.983154 
	C124.986496,251.029007 124.925255,251.464966 124.885132,251.681732 
	C110.728508,251.947449 96.611664,252.046906 82.496117,251.952972 
	C81.321732,251.945145 80.156029,250.631485 79.042511,249.497757 
z"/>
<path fill="#47A063" opacity="1.000000" stroke="none" 
	d="
M108.936172,188.810959 
	C112.790047,186.354813 117.035019,183.958801 121.447601,181.468185 
	C121.901604,184.140366 122.326935,186.643738 122.925781,189.490982 
	C120.128761,187.645813 117.302666,185.328873 113.604858,188.955673 
	C112.892189,189.654648 110.788986,188.935852 108.936172,188.810959 
z"/>
<path fill="#52AE6D" opacity="1.000000" stroke="none" 
	d="
M337.764191,119.741524 
	C330.633484,120.115402 323.742584,121.349823 317.820770,128.817383 
	C317.820770,125.426331 317.820770,123.711754 317.861328,121.619553 
	C321.109222,120.794456 324.305298,120.219299 327.527069,119.934738 
	C330.870178,119.639458 334.238159,119.625504 337.764191,119.741524 
z"/>
<path fill="#42BD66" opacity="1.000000" stroke="none" 
	d="
M270.127716,118.672089 
	C265.984070,118.636154 261.944305,118.327385 257.453064,118.017899 
	C259.416565,115.420998 267.427063,113.712189 269.902191,115.496857 
	C270.433380,115.879883 270.143311,117.401917 270.127716,118.672089 
z"/>
<path fill="#43B866" opacity="1.000000" stroke="none" 
	d="
M249.854874,218.707733 
	C249.678207,219.035248 249.388947,219.047241 248.883453,219.081512 
	C245.087143,218.801559 241.507370,218.506500 237.487610,218.119049 
	C239.588501,216.258011 242.129379,214.489380 245.586761,212.082794 
	C246.687775,213.752686 248.214874,216.068863 249.854874,218.707733 
z"/>
<path fill="#4AB46A" opacity="1.000000" stroke="none" 
	d="
M274.174988,121.451347 
	C273.930237,121.027214 273.939545,120.826530 273.959442,120.324989 
	C277.962402,122.058189 283.469940,120.138603 286.726440,124.903320 
	C287.000427,124.998863 287.013611,125.010536 287.013611,125.010536 
	C286.814880,125.918533 286.616150,126.826523 286.265747,128.174683 
	C282.219086,126.301514 278.324097,123.988159 274.174988,121.451347 
z"/>
<path fill="#4CAC68" opacity="1.000000" stroke="none" 
	d="
M209.803619,238.303650 
	C204.297684,238.438812 198.680847,238.260498 192.614502,238.064575 
	C196.030624,235.155075 205.803055,235.123398 209.803619,238.303650 
z"/>
<path fill="#43B866" opacity="1.000000" stroke="none" 
	d="
M290.975220,318.347015 
	C290.597046,316.816986 290.526886,315.451965 290.456726,314.086975 
	C292.658417,314.996277 294.860077,315.905579 297.061737,316.814880 
	C296.919891,317.380615 296.778046,317.946320 296.636200,318.512054 
	C294.851898,318.512054 293.067566,318.512054 290.975220,318.347015 
z"/>
<path fill="#4AB46A" opacity="1.000000" stroke="none" 
	d="
M303.968811,123.663452 
	C303.186188,124.079308 302.488953,124.070656 301.445679,124.076172 
	C300.985809,120.883057 302.106598,119.089005 305.734772,119.596863 
	C308.914154,120.041901 312.134949,120.191078 315.645538,120.643013 
	C312.976868,120.871178 309.977722,120.737221 307.035217,121.084053 
	C305.971649,121.209419 305.043884,122.487091 303.968811,123.663452 
z"/>
<path fill="#47A063" opacity="1.000000" stroke="none" 
	d="
M127.802887,228.709000 
	C127.504601,224.259247 127.445389,219.554764 127.347534,214.380478 
	C127.553253,218.758530 127.797607,223.606415 127.802887,228.709000 
z"/>
<path fill="#52AE6D" opacity="1.000000" stroke="none" 
	d="
M146.061218,160.092361 
	C146.145782,169.315384 146.230331,178.538422 146.265656,188.184174 
	C145.798355,184.868362 145.152145,181.138092 145.016342,177.389343 
	C144.817932,171.912659 144.985992,166.422684 145.264526,160.489410 
	C145.707870,160.057755 145.884537,160.075058 146.061218,160.092361 
z"/>
<path fill="#52AE6D" opacity="1.000000" stroke="none" 
	d="
M266.491974,307.048950 
	C265.225098,307.421967 263.497467,307.732605 261.380371,308.057312 
	C256.208221,308.026154 251.418396,308.116638 246.646759,307.863739 
	C244.928986,307.772736 243.254959,306.855957 241.275360,306.043884 
	C249.336899,306.176666 257.684052,306.581635 266.491974,307.048950 
z"/>
<path fill="#47A063" opacity="1.000000" stroke="none" 
	d="
M67.481010,176.928635 
	C69.651505,178.734390 71.823296,180.881287 74.177162,183.292145 
	C69.871643,183.862198 68.055664,181.245651 67.481010,176.928635 
z"/>
<path fill="#46BA68" opacity="1.000000" stroke="none" 
	d="
M344.009766,292.006104 
	C344.852905,291.947784 345.696045,291.889465 346.539185,291.831177 
	C345.924255,293.813690 345.309296,295.796204 344.352905,297.457367 
	C344.010895,295.426056 344.010315,293.716095 344.009766,292.006104 
z"/>
<path fill="#4CAC68" opacity="1.000000" stroke="none" 
	d="
M209.897766,305.324158 
	C210.033203,304.927063 210.498688,304.999329 210.731522,305.031647 
	C209.795166,306.010437 208.646622,307.735382 207.453171,307.767059 
	C202.584488,307.896179 197.702072,307.507324 192.482788,307.118011 
	C196.562759,306.938995 200.988068,307.053253 205.404633,306.905945 
	C206.868744,306.857117 208.310410,306.135376 209.897766,305.324158 
z"/>
<path fill="#4AB46A" opacity="1.000000" stroke="none" 
	d="
M302.603760,140.070190 
	C302.926605,141.703262 302.930969,143.444275 302.905090,145.620941 
	C298.394623,143.603149 298.329468,142.953522 302.603760,140.070190 
z"/>
<path fill="#3FC165" opacity="1.000000" stroke="none" 
	d="
M343.675140,292.004669 
	C344.010315,293.716095 344.010895,295.426056 344.013062,297.563049 
	C342.859283,298.053955 341.703918,298.117828 340.267395,298.085999 
	C340.571930,296.211121 341.157623,294.431915 341.872864,292.326385 
	C342.448456,292.001099 342.894501,292.002167 343.675140,292.004669 
z"/>
<path fill="#52AE6D" opacity="1.000000" stroke="none" 
	d="
M339.176025,132.739197 
	C338.890808,129.000641 338.896301,125.089256 338.880676,120.750160 
	C339.061951,124.403755 339.264343,128.485062 339.176025,132.739197 
z"/>
<path fill="#46BA68" opacity="1.000000" stroke="none" 
	d="
M335.669952,307.834503 
	C335.800110,308.691559 335.700500,309.449677 335.600922,310.207825 
	C335.079254,309.983887 334.557587,309.759918 334.035919,309.535950 
	C334.504028,308.935852 334.972137,308.335724 335.669952,307.834503 
z"/>
<path fill="#48B969" opacity="1.000000" stroke="none" 
	d="
M130.190964,190.381012 
	C131.707870,189.722992 133.405426,189.302902 135.482727,188.850342 
	C134.580521,191.089905 133.002228,192.458496 130.190964,190.381012 
z"/>
<path fill="#52AE6D" opacity="1.000000" stroke="none" 
	d="
M155.666595,94.763855 
	C155.979630,94.915916 155.983383,95.193665 155.992401,95.332260 
	C155.527222,95.534897 155.053024,95.598946 154.131653,95.571732 
	C153.487213,95.441902 153.298126,95.466881 153.117218,95.555397 
	C152.338150,95.600967 151.559097,95.646545 150.382401,95.457848 
	C149.984772,95.223572 149.922592,94.920792 149.922592,94.920792 
	C151.732910,94.817795 153.543228,94.714790 155.666595,94.763855 
z"/>
<path fill="#5DA971" opacity="1.000000" stroke="none" 
	d="
M235.704422,302.754517 
	C237.357391,303.372192 239.049088,304.347107 240.940918,305.580383 
	C239.341736,304.929718 237.542450,304.020721 235.704422,302.754517 
z"/>
<path fill="#48B969" opacity="1.000000" stroke="none" 
	d="
M146.157043,159.679901 
	C145.884537,160.075058 145.707870,160.057755 145.265640,160.020844 
	C144.906921,158.847275 144.813766,157.693314 144.861511,156.268555 
	C145.179596,155.985153 145.356781,155.972549 145.799240,155.933502 
	C146.127289,157.027176 146.190079,158.147308 146.157043,159.679901 
z"/>
<path fill="#4CAC68" opacity="1.000000" stroke="none" 
	d="
M122.110367,269.343475 
	C122.761909,269.076263 123.514107,269.057770 124.643417,269.044312 
	C124.444580,271.096039 123.640106,271.960297 122.110367,269.343475 
z"/>
<path fill="#43B866" opacity="1.000000" stroke="none" 
	d="
M254.787933,236.577942 
	C253.772903,236.409470 252.559357,235.990128 251.155853,235.299698 
	C252.173767,235.461441 253.381592,235.894272 254.787933,236.577942 
z"/>
<path fill="#47A063" opacity="1.000000" stroke="none" 
	d="
M74.517624,183.863892 
	C75.479492,184.188751 76.587112,184.811584 77.886566,185.692551 
	C76.940056,185.354416 75.801720,184.758133 74.517624,183.863892 
z"/>
<path fill="#4CAC68" opacity="1.000000" stroke="none" 
	d="
M211.288605,251.870407 
	C211.067322,251.255676 211.058426,250.499359 211.061249,249.365051 
	C211.215652,249.900970 211.358337,250.814896 211.288605,251.870407 
z"/>
<path fill="#43B866" opacity="1.000000" stroke="none" 
	d="
M261.802124,235.955444 
	C261.509216,236.248077 261.022186,236.474106 260.272888,236.753174 
	C260.543091,236.500412 261.075562,236.194626 261.802124,235.955444 
z"/>
<path fill="#47A063" opacity="1.000000" stroke="none" 
	d="
M60.583027,215.243622 
	C60.781796,215.829193 60.833080,216.591339 60.795872,217.730621 
	C60.616768,217.211914 60.526154,216.316040 60.583027,215.243622 
z"/>
<path fill="#47A063" opacity="1.000000" stroke="none" 
	d="
M79.604111,167.989471 
	C79.328697,167.802612 78.972496,167.326752 78.541611,166.547913 
	C78.819061,166.730103 79.171188,167.215286 79.604111,167.989471 
z"/>
<path fill="#47A063" opacity="1.000000" stroke="none" 
	d="
M80.874207,169.756256 
	C80.578072,169.607788 80.182739,169.186005 79.703445,168.479492 
	C80.004669,168.624146 80.389839,169.053528 80.874207,169.756256 
z"/>
<path fill="#5DA971" opacity="1.000000" stroke="none" 
	d="
M234.142883,301.185852 
	C234.468094,301.323578 234.942596,301.722382 235.478210,302.448181 
	C235.123611,302.332428 234.707886,301.889648 234.142883,301.185852 
z"/>
<path fill="#4AB46A" opacity="1.000000" stroke="none" 
	d="
M287.703857,130.025970 
	C287.378876,129.920761 286.919128,129.550705 286.341492,128.892975 
	C286.672089,128.990570 287.120605,129.375854 287.703857,130.025970 
z"/>
<path fill="#4CAC68" opacity="1.000000" stroke="none" 
	d="
M210.931213,241.690826 
	C211.018051,241.944122 210.534653,241.993820 210.293152,242.020996 
	C209.994583,241.601273 209.937531,241.154388 209.963409,240.379059 
	C210.312363,240.512924 210.578384,240.975220 210.931213,241.690826 
z"/>
<path fill="#47A063" opacity="1.000000" stroke="none" 
	d="
M126.289505,213.682098 
	C126.215637,213.390503 126.422127,213.230667 126.829109,213.010468 
	C127.003014,212.915756 127.069984,213.348297 127.078445,213.566895 
	C126.905701,213.783493 126.724487,213.781494 126.289505,213.682098 
z"/>
<path fill="#43B866" opacity="1.000000" stroke="none" 
	d="
M290.503723,311.495056 
	C290.487915,311.498901 290.519562,311.491211 290.503723,311.495056 
z"/>
<path fill="#47A063" opacity="1.000000" stroke="none" 
	d="
M62.903770,212.285995 
	C62.956310,212.343735 62.953510,212.541000 62.951897,213.036499 
	C62.804001,213.044617 62.769119,212.741562 62.903770,212.285995 
z"/>
<path fill="#43B866" opacity="1.000000" stroke="none" 
	d="
M334.170898,304.073120 
	C334.059967,304.039368 334.512421,304.031982 334.738037,304.029236 
	C334.963623,304.026489 334.627869,304.116119 334.627869,304.116119 
	C334.627869,304.116119 334.281799,304.106842 334.170898,304.073120 
z"/>
<path fill="#43B866" opacity="1.000000" stroke="none" 
	d="
M332.149536,304.067902 
	C332.035065,304.032806 332.500397,304.023499 332.732574,304.020874 
	C332.964752,304.018250 332.619965,304.112701 332.619965,304.112701 
	C332.619965,304.112701 332.264008,304.102997 332.149536,304.067902 
z"/>
<path fill="#43B866" opacity="1.000000" stroke="none" 
	d="
M330.035889,304.041473 
	C329.873596,304.316162 329.663727,304.537109 329.262726,304.889160 
	C329.089569,305.037354 328.925323,304.885834 328.970032,304.589050 
	C329.322632,304.174591 329.630585,304.056946 329.938538,303.939270 
	C329.938538,303.939301 330.006317,304.004791 330.035889,304.041473 
z"/>
<path fill="#49AC67" opacity="1.000000" stroke="none" 
	d="
M149.766083,94.999893 
	C149.922592,94.920792 149.984772,95.223572 149.998993,95.377419 
	C149.850845,95.570534 149.688446,95.609795 149.286682,95.573151 
	C149.212418,95.327789 149.399841,95.188377 149.766083,94.999893 
z"/>
<path fill="#5DA971" opacity="1.000000" stroke="none" 
	d="
M233.159119,300.048309 
	C233.299957,300.047455 233.599457,300.261658 233.983917,300.748840 
	C233.818497,300.768982 233.568130,300.516144 233.159119,300.048309 
z"/>
<path fill="#4AB46A" opacity="1.000000" stroke="none" 
	d="
M286.994629,124.992111 
	C286.988800,124.985352 287.050964,124.974236 287.032288,124.992386 
	C287.013611,125.010536 287.000427,124.998863 286.994629,124.992111 
z"/>
<path fill="#47A063" opacity="1.000000" stroke="none" 
	d="
M119.266777,213.621124 
	C119.254440,213.416977 119.481987,213.378983 119.831268,213.501709 
	C119.936104,213.559311 119.489769,213.684219 119.266777,213.621124 
z"/>
<path fill="#42BD66" opacity="1.000000" stroke="none" 
	d="
M185.255646,256.907745 
	C193.419388,264.479401 194.500153,276.766083 187.748856,285.251831 
	C180.744659,294.055450 168.451935,295.968811 159.075943,289.714783 
	C149.996643,283.658661 146.982422,271.363495 152.430481,261.902893 
	C153.650711,259.783936 155.512604,258.034485 157.670837,255.919647 
	C158.849670,255.237335 159.436752,254.750336 160.023849,254.263336 
	C160.023849,254.263336 160.339569,254.000031 160.762604,253.832336 
	C161.462097,253.473251 161.738541,253.281891 162.014999,253.090515 
	C162.014999,253.090515 162.422668,252.937271 162.929840,252.864944 
	C163.980713,252.558105 164.524414,252.323608 165.068100,252.089111 
	C165.068100,252.089096 165.395691,251.922974 166.066742,251.952774 
	C169.714188,251.926208 172.690567,251.869843 175.666946,251.813477 
	C175.666946,251.813477 175.873871,251.755707 176.169571,252.109375 
	C178.016785,252.948395 179.568298,253.433731 181.119812,253.919067 
	C181.119812,253.919067 181.053513,253.930542 181.164490,254.231857 
	C182.602188,255.324707 183.928909,256.116241 185.255646,256.907745 
z"/>
<path fill="#51AA6B" opacity="1.000000" stroke="none" 
	d="
M175.314987,251.542465 
	C172.690567,251.869843 169.714188,251.926208 166.250320,251.958191 
	C168.829559,251.713013 171.896301,251.492233 175.314987,251.542465 
z"/>
<path fill="#51AA6B" opacity="1.000000" stroke="none" 
	d="
M185.094788,256.615112 
	C183.928909,256.116241 182.602188,255.324707 181.162888,254.198257 
	C182.344833,254.683044 183.639374,255.502747 185.094788,256.615112 
z"/>
<path fill="#51AA6B" opacity="1.000000" stroke="none" 
	d="
M180.925949,253.619110 
	C179.568298,253.433731 178.016785,252.948395 176.238190,252.192017 
	C177.584778,252.387039 179.158432,252.853104 180.925949,253.619110 
z"/>
<path fill="#51AA6B" opacity="1.000000" stroke="none" 
	d="
M159.738022,254.335052 
	C159.436752,254.750336 158.849670,255.237335 157.980820,255.802582 
	C158.283447,255.389465 158.867828,254.898102 159.738022,254.335052 
z"/>
<path fill="#51AA6B" opacity="1.000000" stroke="none" 
	d="
M164.750397,252.056122 
	C164.524414,252.323608 163.980713,252.558105 163.146515,252.843277 
	C163.381577,252.603683 163.907120,252.313416 164.750397,252.056122 
z"/>
<path fill="#51AA6B" opacity="1.000000" stroke="none" 
	d="
M161.733673,253.079697 
	C161.738541,253.281891 161.462097,253.473251 160.960754,253.777618 
	C160.974701,253.616714 161.213531,253.342804 161.733673,253.079697 
z"/>
<path fill="#43BC66" opacity="1.000000" stroke="none" 
	d="
M164.560394,168.326538 
	C153.831848,151.641388 166.040253,132.797302 181.526489,131.682312 
	C193.382935,130.828644 205.298904,139.006729 206.998779,150.494858 
	C208.939438,163.610397 201.016006,175.680435 188.880722,177.943405 
	C178.964005,179.792679 170.949448,176.546661 164.560394,168.326538 
z"/>
<path fill="#49AC67" opacity="1.000000" stroke="none" 
	d="
M153.304825,95.618439 
	C153.298126,95.466881 153.487213,95.441902 153.774994,95.514893 
	C153.865540,95.549309 153.492432,95.681488 153.304825,95.618439 
z"/>
<path fill="#47A063" opacity="1.000000" stroke="none" 
	d="
M122.305588,95.958542 
	C122.252426,95.753815 122.479683,95.534492 122.939743,95.225021 
	C122.947388,95.373848 122.751869,95.643539 122.305588,95.958542 
z"/>
<path fill="#44B967" opacity="1.000000" stroke="none" 
	d="
M241.108002,147.390228 
	C244.713669,137.169098 251.900421,131.131393 261.274719,131.186264 
	C269.815216,131.236237 276.588348,135.145477 280.627045,142.958298 
	C281.492432,144.632416 281.813812,146.587753 282.533173,148.883942 
	C268.731964,148.883942 255.617920,148.895203 242.504166,148.838287 
	C242.032227,148.836243 241.563202,148.162064 241.108002,147.390228 
z"/>
<path fill="#5DA971" opacity="1.000000" stroke="none" 
	d="
M254.976776,255.976929 
	C253.035507,257.118317 251.094238,258.259705 248.925354,259.666321 
	C248.612976,258.169678 248.528183,256.407867 248.410202,253.956070 
	C254.900681,253.956070 260.937042,253.956070 267.431274,253.980698 
	C268.139709,254.185623 268.381226,254.377289 268.772491,254.758972 
	C268.931244,254.937592 268.919830,254.985382 268.668518,255.083588 
	C267.965088,255.472321 267.512970,255.762878 266.596313,256.043396 
	C262.413422,256.014557 258.695099,255.995743 254.976776,255.976929 
z"/>
<path fill="#030803" opacity="1.000000" stroke="none" 
	d="
M330.147888,303.677429 
	C329.630585,304.056946 329.322632,304.174591 328.890015,304.511047 
	C318.289001,308.800476 307.514832,309.313568 296.573242,307.267700 
	C284.348694,304.981934 276.272064,298.106964 273.526764,285.377136 
	C274.173615,284.886414 274.567322,284.792480 275.331177,284.783997 
	C276.453888,284.819275 277.206451,284.769104 277.959015,284.718933 
	C280.351349,284.769104 282.743683,284.819275 285.820801,284.853241 
	C286.505585,284.837006 286.988220,284.727020 286.988220,284.727020 
	C287.439514,284.771454 287.890839,284.815887 289.028076,284.906769 
	C290.151672,285.160889 290.750275,285.249939 291.003326,285.593536 
	C297.148529,293.936035 308.917816,297.192291 318.134491,292.930725 
	C321.667480,291.297119 323.965668,288.959595 321.116058,284.851257 
	C321.116058,284.851257 321.084625,284.912018 320.944397,284.584686 
	C315.551849,282.842072 310.299561,281.426788 305.047272,280.011505 
	C299.151367,278.360809 293.078278,277.165985 287.398651,274.958710 
	C277.448029,271.091583 274.062897,265.215973 274.951385,254.098694 
	C275.107117,252.854324 275.142731,252.390854 275.178314,251.927383 
	C275.178314,251.927383 275.259583,251.752579 275.455688,251.454254 
	C275.840912,250.422623 276.029999,249.689301 276.219116,248.955994 
	C276.219116,248.955994 276.151093,249.050308 276.198242,249.084412 
	C285.321930,236.494431 298.559296,235.377823 312.322693,236.554184 
	C316.992035,236.953278 321.771179,238.427155 326.062836,240.373932 
	C333.926056,243.940842 338.036774,250.495209 338.897827,259.953522 
	C333.123993,259.953522 327.581726,259.953522 321.583588,259.923615 
	C319.593292,251.791534 311.523285,249.859756 302.716919,250.235199 
	C301.243561,250.298019 299.489075,250.383331 298.390839,251.182007 
	C296.407074,252.624603 293.589874,254.514908 293.438538,256.403931 
	C293.305786,258.061279 296.049896,261.006958 298.043854,261.583618 
	C304.715912,263.513245 311.738861,264.235901 318.400757,266.192535 
	C323.878662,267.801453 329.927551,269.432129 334.155090,272.942047 
	C344.429810,281.472595 342.390381,294.821259 330.147888,303.677429 
z"/>
<path fill="#3FC165" opacity="1.000000" stroke="none" 
	d="
M274.961060,284.698547 
	C274.567322,284.792480 274.173615,284.886414 273.478882,285.023315 
	C272.132874,288.786804 269.536926,289.142822 266.025574,289.219513 
	C253.991364,289.482300 253.903702,289.668182 254.030487,277.587433 
	C254.103241,270.655457 254.531128,263.727203 254.887970,256.387085 
	C258.695099,255.995743 262.413422,256.014557 266.792999,256.091309 
	C267.942780,255.761246 268.431305,255.373306 268.919830,254.985382 
	C268.919830,254.985382 268.931244,254.937592 268.942932,254.914948 
	C270.376678,256.907898 272.215485,258.755890 273.111298,260.983154 
	C274.142914,263.548035 274.341248,266.448120 274.737488,269.725281 
	C274.307312,270.764709 274.041138,271.281494 273.774933,271.798248 
	C274.027344,271.920197 274.279755,272.042175 274.532166,272.164124 
	C274.688721,271.443207 274.845245,270.722321 275.001770,270.001404 
	C276.947021,271.547455 278.892334,273.093475 279.816498,273.828003 
	C278.299805,277.817749 277.252014,280.574005 275.908447,283.733368 
	C275.382477,284.308777 275.165283,284.496124 274.961060,284.698547 
z"/>
<path fill="#4FA66A" opacity="1.000000" stroke="none" 
	d="
M321.042725,285.221313 
	C323.965668,288.959595 321.667480,291.297119 318.134491,292.930725 
	C308.917816,297.192291 297.148529,293.936035 291.003326,285.593536 
	C290.750275,285.249939 290.151672,285.160889 289.365234,284.851990 
	C291.265106,286.063568 293.970490,286.946625 295.682220,288.765015 
	C302.485931,295.992706 317.955566,294.185455 321.042725,285.221313 
z"/>
<path fill="#4FA66A" opacity="1.000000" stroke="none" 
	d="
M305.281799,280.268372 
	C310.299561,281.426788 315.551849,282.842072 320.978149,284.579254 
	C315.940216,283.442535 310.728271,281.983887 305.281799,280.268372 
z"/>
<path fill="#4FA66A" opacity="1.000000" stroke="none" 
	d="
M275.331177,284.783997 
	C275.165283,284.496124 275.382477,284.308777 275.782928,284.003967 
	C276.461853,284.068237 276.970520,284.265045 277.719116,284.590393 
	C277.206451,284.769104 276.453888,284.819275 275.331177,284.783997 
z"/>
<path fill="#51AA6B" opacity="1.000000" stroke="none" 
	d="
M276.033386,249.276611 
	C276.029999,249.689301 275.840912,250.422623 275.368347,251.413513 
	C275.339142,250.979782 275.593384,250.288498 276.033386,249.276611 
z"/>
<path fill="#51AA6B" opacity="1.000000" stroke="none" 
	d="
M275.051758,252.108932 
	C275.142731,252.390854 275.107117,252.854324 274.947113,253.644745 
	C274.856903,253.411285 274.891083,252.850891 275.051758,252.108932 
z"/>
<path fill="#4FA66A" opacity="1.000000" stroke="none" 
	d="
M286.870819,284.682251 
	C286.988220,284.727020 286.505585,284.837006 286.264099,284.782715 
	C286.256500,284.615845 286.500122,284.585510 286.870819,284.682251 
z"/>
<path fill="#43B866" opacity="1.000000" stroke="none" 
	d="
M268.668518,255.083572 
	C268.431305,255.373306 267.942780,255.761246 267.257568,256.101318 
	C267.512970,255.762878 267.965088,255.472321 268.668518,255.083572 
z"/>
<path fill="#43B866" opacity="1.000000" stroke="none" 
	d="
M275.000885,270.000702 
	C274.845245,270.722321 274.688721,271.443207 274.532166,272.164124 
	C274.279755,272.042175 274.027344,271.920197 273.774933,271.798248 
	C274.041138,271.281494 274.307312,270.764709 274.786072,270.123413 
	C274.998627,269.998871 275.000000,270.000000 275.000885,270.000702 
z"/>
</svg>